<?xml version="1.0" encoding="UTF-8" standalone="no"?>
<svg
   viewBox="0 0 1280 1280"
   version="1.1"
   id="svg62"
   sodipodi:docname="pterry.svg"
   inkscape:version="1.3 (0e150ed6c4, 2023-07-21)"
   xmlns:inkscape="http://www.inkscape.org/namespaces/inkscape"
   xmlns:sodipodi="http://sodipodi.sourceforge.net/DTD/sodipodi-0.dtd"
   xmlns="http://www.w3.org/2000/svg"
   xmlns:svg="http://www.w3.org/2000/svg">
  <sodipodi:namedview
     id="namedview62"
     pagecolor="#ffffff"
     bordercolor="#000000"
     borderopacity="0.25"
     inkscape:showpageshadow="2"
     inkscape:pageopacity="0.0"
     inkscape:pagecheckerboard="0"
     inkscape:deskcolor="#d1d1d1"
     inkscape:zoom="0.35355339"
     inkscape:cx="461.03362"
     inkscape:cy="623.66818"
     inkscape:window-width="1920"
     inkscape:window-height="1009"
     inkscape:window-x="-8"
     inkscape:window-y="-8"
     inkscape:window-maximized="1"
     inkscape:current-layer="svg62" />
  <defs
     id="defs1">
    <style
       id="style1">.cls-1{fill:#904a04;}.cls-2{fill:#b26734;}.cls-3{fill:#6d3c0f;}.cls-4{fill:#bd6e35;}.cls-5{fill:#a56032;}.cls-6{fill:#3a3a3a;}.cls-7{fill:#444;}.cls-8{fill:#515151;}.cls-9{fill:#303030;}.cls-10{fill:#aaa;}.cls-11{fill:#a4571f;}.cls-12{fill:#824009;}.cls-13{fill:#3f3f3f;}.cls-14{fill:#cb63d3;}.cls-15{fill:#b25f8c;}.cls-16{fill:#fff;}.cls-17{fill:#91562d;}.cls-18{fill:#232323;}.cls-19{fill:#161616;}.cls-20{fill:#7c441e;}.cls-21{fill:none;}.cls-22{fill:#ffc33e;}</style>
  </defs>
  <title
     id="title1">Artboard 1</title>
  <g
     id="Layer_1"
     data-name="Layer 1"
     transform="matrix(1.0811732,0,0,1.0811732,-53.04991,-52.007559)">
    <path
       class="cls-1"
       d="m 921.82,627.73 c 0,0 -2,9.07 -2,10.58 0,1.51 -52.4,-4.53 -52.4,-4.53 l 2,-16.63 z"
       id="path1" />
    <path
       class="cls-1"
       d="m 912.81,623.68 c 0,0 -133.07,-39.78 -190.5,-29.2 -57.43,10.58 -20.22,41.57 -20.22,41.57 z"
       id="path2" />
    <path
       class="cls-1"
       d="m 385.21,629.24 c 0,0 2,9.07 2,10.58 0,1.51 52.39,-4.53 52.39,-4.53 l -2,-16.63 z"
       id="path3" />
    <path
       class="cls-1"
       d="m 394.22,625.2 c 0,0 133.07,-39.79 190.5,-29.2 57.43,10.59 20.22,41.57 20.22,41.57 z"
       id="path4" />
    <ellipse
       class="cls-2"
       cx="661.81"
       cy="721.44"
       rx="243.34"
       ry="123.94"
       id="ellipse4" />
    <path
       class="cls-2"
       d="M 589.26,603.55 454.74,624.71 368,638 344.62,662 v 42.51 l 4.43,52.9 73.33,26.45 57.09,3.78 C 462.74,617.52 589.26,603.55 589.26,603.55 Z"
       id="path5" />
    <path
       class="cls-3"
       d="m 522.41,738.07 c 0,0 -27.2,-42.32 -98.24,-19.65 -71.04,22.67 39.3,42.32 39.3,42.32 z"
       id="path6" />
    <path
       class="cls-3"
       d="m 318.71,1082.18 c 0,0 47,-52.34 153.74,-60.78 41.82,-3.3 32,94.78 32,94.78 l 71.24,-63.61 139.31,11.34 56.45,41.57 c 0,0 36.09,-89.36 104.91,-87.51 68.82,1.85 110.37,56.44 110.37,56.44 l -87.43,-276 H 393.23 Z"
       id="path7" />
    <path
       class="cls-2"
       d="m 780.61,864.53 c -28.25,116.39 -35.37,236 -124.87,236 -89.31,0 -95.6,-107.1 -120.18,-226.8 -22.46,-109.4 48.38,-182.41 120.18,-182.41 a 131.4,131.4 0 0 1 65.58,18.13 c 45.25,26.39 77.39,80.55 59.29,155.08 z"
       id="path8" />
    <path
       class="cls-4"
       d="m 744.93,895.92 c 0,84.15 -58.69,177.73 -102.78,158.55 -46.3,-20.16 -70.81,-80 -80,-167.2 -8.77,-83.21 44.22,-144.88 90.28,-144.88 46.06,0 92.5,69.37 92.5,153.53 z"
       id="path9" />
    <path
       class="cls-2"
       d="m 717.77,602 134.52,21.2 86.71,13.24 23.38,24 v 42.51 l -4.38,52.87 -73.33,26.45 -57.09,3.78 C 844.29,616 717.77,602 717.77,602 Z"
       id="path10" />
    <polygon
       class="cls-5"
       points="761.56,608.08 689.56,595.99 619.46,601.18 563.56,608.08 616.06,721.44 669,777 712,717 "
       id="polygon10" />
    <path
       class="cls-6"
       d="m 773.17,783.34 c 0,0 13.81,71.11 -13.4,80.18 -27.21,9.07 -52.9,-58.95 -52.9,-58.95 h -57.43 l -1.52,-36.27 93.71,-18.14 z"
       id="path11" />
    <path
       class="cls-6"
       d="m 541.09,783.34 c 0,0 -13.8,71.11 13.4,80.18 27.2,9.07 52.9,-58.95 52.9,-58.95 h 57.44 l 1.51,-36.27 -93.71,-18.14 z"
       id="path12" />
    <polygon
       class="cls-7"
       points="731.33,787.95 743.42,793.99 734.35,751.67 642.16,745.63 580.19,751.67 568.1,797.01 581.7,787.95 587.75,780.39 726.8,780.39 "
       id="polygon12" />
    <path
       class="cls-8"
       d="m 772.48,760.11 c 0,0 7.55,32.49 -15.12,39.26 -22.67,6.77 -30.26,-40.1 -30.26,-40.1 l 16.66,-4.58 z"
       id="path13" />
    <path
       class="cls-8"
       d="m 540.89,760.11 c 0,0 -7.56,32.49 15.11,39.26 22.67,6.77 30.26,-40.1 30.26,-40.1 l -16.66,-4.58 z"
       id="path14" />
    <polygon
       class="cls-9"
       points="713.19,757.72 687.5,760.74 686.19,732.02 747.96,732.02 773.65,760.74 746.45,762.25 "
       id="polygon14" />
    <polygon
       class="cls-9"
       points="601.55,757.72 627.24,760.74 628.55,732.02 566.78,732.02 541.09,760.74 568.3,762.25 "
       id="polygon15" />
    <polygon
       class="cls-8"
       points="687.5,760.74 625.53,760.74 611.93,732.02 704.13,732.02 "
       id="polygon16" />
    <circle
       class="cls-10"
       cx="685.98999"
       cy="742.59998"
       r="4.5300002"
       id="circle16" />
    <rect
       class="cls-10"
       x="649.71002"
       y="751.66998"
       width="15.11"
       height="3.02"
       rx="1"
       id="rect16" />
    <path
       class="cls-6"
       d="m 559.56,793.1 a 79.75,79.75 0 0 0 9,-27.76 c 0.12,-1 -1.39,-1 -1.51,0 a 77.43,77.43 0 0 1 -8.75,27 c -0.46,0.85 0.84,1.62 1.31,0.76 z"
       id="path16" />
    <path
       class="cls-6"
       d="m 754.31,792.34 a 77.41,77.41 0 0 1 -8.74,-27 c -0.13,-1 -1.64,-1 -1.51,0 a 79.33,79.33 0 0 0 9,27.76 c 0.46,0.86 1.76,0.1 1.3,-0.76 z"
       id="path17" />
    <path
       class="cls-11"
       d="m 602.82,745.76 c -132.25,128.47 -160.43,380.45 -160.43,380.45 0,0 -25.51,-114.06 -51,-118.31 -34,-5.67 -71.95,69.74 -71.95,69.74 0,0 34.32,-140.44 22,-189.87 -11.57,-46.59 -74.6,-117.53 -36.82,-204.43 0,0 33.58,-55 118.44,-63 0,0 -261.1,79.46 172.81,121.66 h 14.48 z"
       id="path18" />
    <path
       class="cls-1"
       d="m 567.57,761.87 c -105.22,102.21 -126.14,312.31 -126.14,312.31 0,0 -23.94,-90.75 -44.23,-94.13 -27.05,-4.51 -59.07,54.76 -59.07,54.76 0,0 36.2,-113.48 19.36,-150.34 C 308.38,777 305.36,747.88 309.93,719.6 c 0,0 0.08,-51.55 49.69,-73.86 0,0 -142.7,76.88 202.53,110.46 h 11.39 z"
       id="path19" />
    <path
       class="cls-3"
       d="m 793.68,736.56 c 0,0 27.21,-42.32 98.25,-19.65 71.04,22.67 -39.3,42.32 -39.3,42.32 z"
       id="path20" />
    <path
       class="cls-11"
       d="m 704.21,744.24 c 132.25,128.48 160.43,380.46 160.43,380.46 0,0 25.51,-114.07 51,-118.32 34,-5.66 72,69.75 72,69.75 0,0 -34.32,-140.44 -22,-189.87 11.57,-46.59 74.6,-117.53 36.82,-204.44 0,0 -33.58,-55 -118.44,-63 0,0 261.1,79.46 -172.81,121.66 h -14.56 z"
       id="path21" />
    <path
       class="cls-1"
       d="m 739.46,760.36 c 105.22,102.21 126.14,312.31 126.14,312.31 0,0 23.93,-90.75 44.22,-94.14 27.06,-4.51 59.08,54.77 59.08,54.77 0,0 -36.21,-113.48 -19.37,-150.3 49.12,-107.52 52.14,-136.59 47.57,-164.87 0,0 -0.08,-51.55 -49.69,-73.86 0,0 142.7,76.88 -202.54,110.45 h -11.38 z"
       id="path22" />
    <path
       class="cls-5"
       d="m 487,619 c 0,0 21.91,42 107,42 4,0 -8.89,-6.4 -8.89,-6.4 0,0 -54.91,3.14 -89.39,-36.34 C 492,614 487,619 487,619 Z"
       id="path23" />
    <polygon
       class="cls-11"
       points="382.68,758.27 401.54,725.13 382.68,719.43 "
       id="polygon23" />
    <polygon
       class="cls-11"
       points="370.89,739.25 384.53,715.28 370.89,711.17 "
       id="polygon24" />
    <polygon
       class="cls-11"
       points="924.35,756.76 905.49,723.62 924.35,717.92 "
       id="polygon25" />
    <polygon
       class="cls-11"
       points="936.13,737.74 922.5,713.77 936.13,709.65 "
       id="polygon26" />
    <polygon
       class="cls-12"
       points="566.97,594.28 563.23,607.64 595.3,608.08 596.81,595.99 "
       id="polygon27" />
    <polygon
       class="cls-12"
       points="762.51,593.34 761.41,608.33 734.01,603.03 735.87,591.46 "
       id="polygon28" />
    <path
       class="cls-2"
       d="m 613.09,1109 c -12.68,37.21 -21.62,63.4 -41.79,63.4 -20.17,0 -41.1,-36.76 -41.1,-76.07 0,-39.31 18.34,-89.89 38.52,-89.89 20.18,0 58.54,60.97 44.37,102.56 z"
       id="path28" />
    <polygon
       class="cls-2"
       points="592.69,1188.11 550.72,1184.29 561.64,1152.63 589.21,1151.51 "
       id="polygon29" />
    <path
       class="cls-11"
       d="m 551.92,1180.8 40.58,5.38 18.41,45.82 c -45.11,-49.36 -90.21,-7.08 -90.21,-7.08 z"
       id="path29" />
    <path
       class="cls-11"
       d="m 554.24,1201.83 c 0,0 -13.69,20.19 -9,30.17 l 15.11,-15.08 17.82,-15.09 z"
       id="path30" />
    <path
       class="cls-2"
       d="m 698.85,1101.89 c 11.18,37.68 15.83,65.09 36,65.09 20.17,0 41.1,-36.76 41.1,-76.07 0,-39.31 -18.35,-89.91 -38.52,-89.91 -20.17,0 -50.86,59.49 -38.58,100.89 z"
       id="path31" />
    <polygon
       class="cls-2"
       points="713.46,1182.72 755.42,1178.9 744.5,1147.24 716.94,1146.12 "
       id="polygon31" />
    <path
       class="cls-11"
       d="m 754.22,1175.41 -40.58,5.38 -18.4,45.82 c 45.1,-49.36 90.21,-7.09 90.21,-7.09 z"
       id="path32" />
    <path
       class="cls-11"
       d="m 748.5,1197.17 c 0,0 13.7,20.19 9,30.17 l -15.12,-15.09 -17.82,-15.08 z"
       id="path33" />
    <rect
       class="cls-13"
       x="569.60999"
       y="657.45001"
       width="43.830002"
       height="19.65"
       rx="6.1700001"
       id="rect33" />
    <path
       class="cls-9"
       d="m 800.74,296.09 c 0,0 0,-10.5 -21.38,-13.65 -8.72,-1.29 -59.12,-0.7 -59.12,-0.7 l -15.68,-34.6 c 0,0 69.52,0.8 91.42,11.49 C 817.88,269.32 813,286 811,303.1"
       id="path34" />
    <path
       class="cls-9"
       d="m 485.42,316.6 c 0,0 -1.39,-10.41 19.43,-16.31 8.48,-2.4 58.53,-8.35 58.53,-8.35 L 583.82,255 c 0,0 -78.21,10.41 -98.54,23.84 -20.33,13.43 -13.3,29.32 -9.12,46"
       id="path35" />
    <path
       class="cls-2"
       d="m 560.77,567.57 c -1.3,4 4.4,10.16 6.51,12.81 16.61,20.85 29.62,44.28 44.26,66.55 6.38,9.71 46.93,69.27 59.36,56.05 21.16,-22.5 36.75,-50.25 52,-77 16,-28.08 30.2,-57.4 39.11,-88.55 a 8.31,8.31 0 0 0 0.46,-3.23 c -1,-8.41 -37.28,-9.1 -44.15,-10.15 l -20.82,-3.2 c -1.88,-0.29 -6.68,-2 -8.53,-1.31 l -97.35,36.15 -19.31,7.17 c -2.64,1 -9.83,1.41 -11.26,4.11 a 3.76,3.76 0 0 0 -0.28,0.6 z"
       id="path36" />
    <polygon
       class="cls-11"
       points="681.83,675.67 732.15,596.66 758.37,534.08 685.27,523.98 574.86,574.98 632.37,665.52 646.49,677.97 664.23,693.47 "
       id="polygon36" />
    <polyline
       class="cls-14"
       points="721.26 601.57 598.84 595.53 630.58 660.52 642.67 672.61 659.29 686.21 669.87 677.14 677.43 669.59 684.99 659.01"
       id="polyline36" />
    <polygon
       class="cls-15"
       points="650.23,623.73 633.6,643.38 644.18,661.52 657.78,675.12 708.99,629.78 "
       id="polygon37" />
    <path
       class="cls-4"
       d="m 671.69,49.44 c -4.64,0.63 -9.72,6.23 -12,9 -32.3,39.35 -51.93,87.41 -68.9,135.4 -9.21,26.1 -17.79,52.46 -27.79,78.33 -9.7,25.24 -23.21,49 -31.84,74.42 -9.77,28.78 -13.29,59.55 -11.61,89.86 2.42,43.68 8.59,97.89 40.23,131.13 48.62,51.07 83.3,87.35 83.3,87.35 l 20.67,16.32 21.13,-19 c 0,0 56.42,-50.09 62.55,-72.25 6.13,-22.16 6.44,-20.54 11.63,-32.24 5.19,-11.7 13.62,-12.48 20,-45.08 15.41,-78.47 -12.25,-158.34 -39.58,-231.26 -15.46,-41.27 -31.89,-82.35 -42.36,-125.16 -4.51,-18.47 -7.89,-37.18 -11.68,-55.81 -1.9,-9.3 -3.88,-18.59 -6.15,-27.81 -0.8,-3.23 -1.12,-11.16 -4.6,-12.78 a 5.4,5.4 0 0 0 -3,-0.42 z"
       id="path37" />
    <path
       class="cls-2"
       d="m 675.74,50.6 c 3.58,4.67 -1.86,8.25 -1.34,13.89 q 0.95,10.23 2.16,20.44 2.52,21.06 6.18,41.95 a 772.75,772.75 0 0 0 18.84,81.32 c 21.39,73.88 54.09,146.09 56,223 2,78.41 -28.81,154.7 -71.79,220.32 46,-39.47 79.71,-83.64 94.25,-152.73 8.09,-38.38 4.23,-79.54 -4.21,-117.82 -4.13,-18.72 -13.35,-35.66 -18.29,-53.9 -5.41,-20 -11.93,-39.73 -18.83,-59.28 -13.81,-39.14 -29.25,-77.74 -40.84,-117.63 -7.7,-26.5 -10.21,-54.2 -16.93,-81 -0.45,-1.76 -2.47,-22.71 -9.26,-19.26"
       id="path38" />
    <path
       class="cls-16"
       d="m 594.1,472.41 c 0.74,11.43 -7.13,21.25 -17.59,21.93 -10.46,0.68 -19.53,-8 -20.28,-19.47 -0.75,-11.47 7.66,-13.14 18.12,-13.82 10.46,-0.68 19,-0.05 19.75,11.36 z"
       id="path39" />
    <path
       class="cls-16"
       d="m 760,462.52 c 0.78,11.94 -7.88,22.21 -19.33,23 -11.45,0.79 -21.37,-8.33 -22.14,-20.26 -0.77,-11.93 8.4,-14.1 19.86,-14.84 11.46,-0.74 20.82,0.17 21.61,12.1 z"
       id="path40" />
    <ellipse
       class="cls-17"
       cx="622.98999"
       cy="559.46997"
       rx="5.1700001"
       ry="10.14"
       transform="rotate(-18.07,623.18739,559.60219)"
       id="ellipse40" />
    <ellipse
       class="cls-17"
       cx="695.16998"
       cy="559.46997"
       rx="10.14"
       ry="5.1700001"
       transform="rotate(-71.93,695.10005,559.46879)"
       id="ellipse41" />
    <circle
       class="cls-18"
       cx="580.95001"
       cy="482.63"
       r="7.6700001"
       id="circle41" />
    <circle
       class="cls-18"
       cx="735.17999"
       cy="472.41"
       r="7.75"
       id="circle42" />
    <rect
       class="cls-13"
       x="775.83002"
       y="376.94"
       width="27.209999"
       height="120.91"
       rx="3.6900001"
       transform="rotate(-3.72,789.87981,437.63827)"
       id="rect42" />
    <rect
       class="cls-19"
       x="807.47998"
       y="381.51999"
       width="9.0699997"
       height="107.31"
       transform="rotate(-3.72,812.45897,435.28893)"
       id="rect43" />
    <rect
       class="cls-19"
       x="816.62"
       y="388.28"
       width="15.11"
       height="95.220001"
       rx="3"
       transform="rotate(-3.72,824.60735,436.14583)"
       id="rect44" />
    <polygon
       class="cls-9"
       points="787.76,376.92 786.82,373.95 798.79,371.66 806.63,375.69 814.28,493.34 807.13,499.86 797.4,500.49 796.71,479.33 802.15,469.89 796.76,386.94 "
       id="polygon44" />
    <polygon
       class="cls-9"
       points="828.05,495.47 820.2,374.81 807.93,369.55 812.31,381.38 819.48,491.48 814.67,499.37 "
       id="polygon45" />
    <polygon
       class="cls-9"
       points="800.93,295.99 811.24,300.33 816.56,367.06 807.5,368.5 "
       id="polygon46" />
    <polygon
       class="cls-9"
       points="807.68,345.33 820.2,374.81 807.74,369.56 "
       id="polygon47" />
    <rect
       class="cls-9"
       x="466.97"
       y="474.70999"
       width="10.58"
       height="22.67"
       rx="2.77"
       transform="rotate(-3.72,472.49183,486.20859)"
       id="rect47" />
    <path
       class="cls-9"
       d="m 465.75,467.54 c 0,0 -76.45,223.08 128.76,209.73 L 599,677 598.12,663.42 c 0,0 -167.23,36.58 -125.88,-166.01 6.63,-32.48 -1.87,-28.66 -1.87,-28.66 z"
       id="path47" />
    <rect
       class="cls-13"
       x="501.32999"
       y="394.79999"
       width="27.209999"
       height="120.91"
       rx="3.6900001"
       transform="rotate(176.28,514.93921,455.24439)"
       id="rect48" />
    <rect
       class="cls-19"
       x="487.73001"
       y="402.31"
       width="9.0699997"
       height="107.31"
       transform="rotate(176.28,492.26696,455.96465)"
       id="rect49" />
    <rect
       class="cls-19"
       x="472.73999"
       y="410.64999"
       width="15.11"
       height="95.220001"
       rx="3"
       transform="rotate(176.28,480.30009,458.25385)"
       id="rect50" />
    <polygon
       class="cls-9"
       points="508.76,395.07 509.31,392 497.14,391.28 489.89,396.3 497.55,513.94 505.48,519.48 515.21,518.85 513.16,497.78 506.54,489.12 501.14,406.17 "
       id="polygon50" />
    <polygon
       class="cls-9"
       points="484.17,517.84 476.32,397.18 487.81,390.37 484.99,402.67 492.15,512.78 497.94,519.97 "
       id="polygon51" />
    <polygon
       class="cls-9"
       points="485.6,316.5 476.08,324.14 478.92,389.02 488.1,389.27 "
       id="polygon52" />
    <polygon
       class="cls-9"
       points="484.92,366.33 476.32,397.18 487.99,390.36 "
       id="polygon53" />
    <path
       class="cls-20"
       d="m 526.29,367.2 c 7.4,-5 17,-5.67 25.6,-6.74 10,-1.22 20,-1.81 29.79,0.8 8.46,2.26 12.08,-10.86 3.61,-13.12 -11.6,-3.09 -23.42,-2.58 -35.22,-1.05 -10.48,1.36 -21.66,2.26 -30.65,8.36 -7.2,4.89 -0.4,16.68 6.87,11.75 z"
       id="path53" />
    <path
       class="cls-20"
       d="M 714.85,356.31 A 78.59,78.59 0 0 1 766,353.26 c 8.44,2.36 12,-10.76 3.61,-13.12 a 90.81,90.81 0 0 0 -58.36,3.06 c -3.43,1.38 -5.76,4.52 -4.75,8.36 0.86,3.24 5,6.13 8.37,4.75 z"
       id="path54" />
    <g
       id="Glasses">
      <path
         class="cls-18"
         d="m 678.15,451.06 c -0.36,-7 -13,-15.45 -28,-14.69 -15,0.76 -26.76,10.41 -26.41,17.43 0.35,7.02 12,-3.51 27.08,-4.26 15.08,-0.75 27.68,8.55 27.33,1.52 z"
         id="path55" />
      <ellipse
         class="cls-16"
         cx="574.10999"
         cy="443.03"
         rx="53.169998"
         ry="73.480003"
         transform="rotate(-2.88,573.80736,442.93055)"
         id="ellipse55" />
      <ellipse
         class="cls-16"
         cx="726.84998"
         cy="435.35001"
         rx="53.169998"
         ry="73.480003"
         transform="rotate(-2.88,726.65503,435.22925)"
         id="ellipse56" />
      <path
         class="cls-21"
         d="m 623.18,443.41 54.44,-2.74"
         id="path56" />
      <path
         class="cls-18"
         d="M 541.67,391.16 C 533.46,403 528.51,409.42 523,409.7 c -5.51,0.28 -10.83,-9.8 -11.43,-21.85 -0.6,-12.05 34.53,-13.84 40.09,-14.12 5.56,-0.28 -8.1,14.69 -9.99,17.43 z"
         id="path57" />
      <path
         class="cls-18"
         d="m 751.2,380.62 c 9.35,11 14.92,16.85 20.48,16.57 5.56,-0.28 9.79,-10.83 9.19,-22.88 -0.6,-12.05 -35.75,-10.31 -41.31,-10 -5.56,0.31 9.44,13.78 11.64,16.31 z"
         id="path58" />
    </g>
    <circle
       class="cls-18"
       cx="576.26001"
       cy="485.84"
       r="18"
       id="circle58" />
    <circle
       class="cls-18"
       cx="731.98999"
       cy="478.01001"
       r="19.709999"
       id="circle59" />
    <circle
       class="cls-16"
       cx="580.17999"
       cy="494.28"
       r="4.9299998"
       id="circle60" />
    <circle
       class="cls-16"
       cx="727.07001"
       cy="487.72"
       r="5.4000001"
       id="circle61" />
    <ellipse
       class="cls-22"
       cx="518.20001"
       cy="386.10999"
       rx="3.29"
       ry="1.4400001"
       transform="rotate(-19.44,518.09245,386.05357)"
       id="ellipse61" />
    <ellipse
       class="cls-22"
       cx="774.20001"
       cy="373.10999"
       rx="1.4400001"
       ry="3.29"
       transform="rotate(-64.44,774.15127,373.11424)"
       id="ellipse62" />
    <path
       class="cls-12"
       d="m 487,619.64 c 0,0 -5.33,-11.84 -5.87,-15.72 -0.13,-0.92 6.55,-1.26 6.55,-1.26 L 496,618 Z"
       id="path62" />
  </g>
</svg>
