<svg xmlns="http://www.w3.org/2000/svg" style="width:100%;height:100%;transform:translate3d(0,0,0)" width="552" height="552" preserveAspectRatio="xMidYMid meet" viewBox="0 0 552 552"><defs><clipPath id="__lottie_element_266"><rect width="552" height="552" x="0" y="0"/></clipPath><clipPath id="__lottie_element_268"><path d="M 0 0 L 552 0 L 552 552 L 0 552 Z"/></clipPath><clipPath id="__lottie_element_274"><path d="M 0 0 L 250 0 L 250 250 L 0 250 Z"/></clipPath><mask id="__lottie_element_277" mask-type="luminance"><g filter="url(#__lottie_element_278)"><g style="display:block" opacity="1"><g opacity="1"><path fill="url(#__lottie_element_281)" fill-opacity="1" d="M 0 -112.698 C 62.1978 -112.698 112.698 -62.1978 112.698 0 C 112.698 62.1978 62.1978 112.698 0 112.698 C -62.1978 112.698 -112.698 62.1978 -112.698 0 C -112.698 -62.1978 -62.1978 -112.698 0 -112.698 Z" transform="matrix(1, 0, 0, 1, 123.814, 124.954) matrix(1, 0, 0, 1, 0, 0)"/></g></g></g></mask><filter id="__lottie_element_278" width="100%" height="100%" x="0%" y="0%" filterUnits="objectBoundingBox"><feColorMatrix color-interpolation-filters="sRGB" type="matrix" values="0 0 0 1 0 0 0 0 1 0 0 0 0 1 0 0 0 0 1 1"/></filter><linearGradient id="__lottie_element_281" x1="56.52" x2="-56.197" y1="98.525" y2="-96.706" gradientUnits="userSpaceOnUse" spreadMethod="pad"><stop offset="0%" stop-color="#6139DA"/><stop offset="50%" stop-color="#3058DA"/><stop offset="100%" stop-color="#0078DA"/></linearGradient><mask id="__lottie_element_286" mask-type="luminance"><g filter="url(#__lottie_element_287)"><g style="display:block" opacity="1"><g opacity="1"><path fill="url(#__lottie_element_290)" fill-opacity="1" d="M 0 -112.698 C 62.1978 -112.698 112.698 -62.1978 112.698 0 C 112.698 62.1978 62.1978 112.698 0 112.698 C -62.1978 112.698 -112.698 62.1978 -112.698 0 C -112.698 -62.1978 -62.1978 -112.698 0 -112.698 Z" transform="matrix(1, 0, 0, 1, 123.814, 124.954) matrix(1, 0, 0, 1, 0, 0)"/></g></g></g></mask><filter id="__lottie_element_287" width="100%" height="100%" x="0%" y="0%" filterUnits="objectBoundingBox"><feColorMatrix color-interpolation-filters="sRGB" type="matrix" values="0 0 0 1 0 0 0 0 1 0 0 0 0 1 0 0 0 0 1 1"/></filter><linearGradient id="__lottie_element_290" x1="56.52" x2="-56.197" y1="98.525" y2="-96.706" gradientUnits="userSpaceOnUse" spreadMethod="pad"><stop offset="0%" stop-color="#6139DA"/><stop offset="50%" stop-color="#3058DA"/><stop offset="100%" stop-color="#0078DA"/></linearGradient><mask id="__lottie_element_293" mask-type="luminance"><g filter="url(#__lottie_element_294)"><g style="display:block" opacity="1"><g opacity="1"><path fill="url(#__lottie_element_297)" fill-opacity="1" d="M 0 -112.698 C 62.1978 -112.698 112.698 -62.1978 112.698 0 C 112.698 62.1978 62.1978 112.698 0 112.698 C -62.1978 112.698 -112.698 62.1978 -112.698 0 C -112.698 -62.1978 -62.1978 -112.698 0 -112.698 Z" transform="matrix(1, 0, 0, 1, 123.814, 124.954) matrix(1, 0, 0, 1, 0, 0)"/></g></g></g></mask><filter id="__lottie_element_294" width="100%" height="100%" x="0%" y="0%" filterUnits="objectBoundingBox"><feColorMatrix color-interpolation-filters="sRGB" type="matrix" values="0 0 0 1 0 0 0 0 1 0 0 0 0 1 0 0 0 0 1 1"/></filter><linearGradient id="__lottie_element_297" x1="56.52" x2="-56.197" y1="98.525" y2="-96.706" gradientUnits="userSpaceOnUse" spreadMethod="pad"><stop offset="0%" stop-color="#6139DA"/><stop offset="50%" stop-color="#3058DA"/><stop offset="100%" stop-color="#0078DA"/></linearGradient><mask id="__lottie_element_301" mask-type="luminance"><g filter="url(#__lottie_element_302)"><g style="display:block" opacity="1"><g opacity="1"><path fill="url(#__lottie_element_305)" fill-opacity="1" d="M 0 -112.698 C 62.1978 -112.698 112.698 -62.1978 112.698 0 C 112.698 62.1978 62.1978 112.698 0 112.698 C -62.1978 112.698 -112.698 62.1978 -112.698 0 C -112.698 -62.1978 -62.1978 -112.698 0 -112.698 Z" transform="matrix(1, 0, 0, 1, 123.814, 124.954) matrix(1, 0, 0, 1, 0, 0)"/></g></g></g></mask><filter id="__lottie_element_302" width="100%" height="100%" x="0%" y="0%" filterUnits="objectBoundingBox"><feColorMatrix color-interpolation-filters="sRGB" type="matrix" values="0 0 0 1 0 0 0 0 1 0 0 0 0 1 0 0 0 0 1 1"/></filter><linearGradient id="__lottie_element_305" x1="56.52" x2="-56.197" y1="98.525" y2="-96.706" gradientUnits="userSpaceOnUse" spreadMethod="pad"><stop offset="0%" stop-color="#6139DA"/><stop offset="50%" stop-color="#3058DA"/><stop offset="100%" stop-color="#0078DA"/></linearGradient><mask id="__lottie_element_309" mask-type="luminance"><g filter="url(#__lottie_element_310)"><g style="display:block" opacity="1"><g opacity="1"><path fill="url(#__lottie_element_313)" fill-opacity="1" d="M 0 -112.698 C 62.1978 -112.698 112.698 -62.1978 112.698 0 C 112.698 62.1978 62.1978 112.698 0 112.698 C -62.1978 112.698 -112.698 62.1978 -112.698 0 C -112.698 -62.1978 -62.1978 -112.698 0 -112.698 Z" transform="matrix(1, 0, 0, 1, 123.814, 124.954) matrix(1, 0, 0, 1, 0, 0)"/></g></g></g></mask><filter id="__lottie_element_310" width="100%" height="100%" x="0%" y="0%" filterUnits="objectBoundingBox"><feColorMatrix color-interpolation-filters="sRGB" type="matrix" values="0 0 0 1 0 0 0 0 1 0 0 0 0 1 0 0 0 0 1 1"/></filter><linearGradient id="__lottie_element_313" x1="56.52" x2="-56.197" y1="98.525" y2="-96.706" gradientUnits="userSpaceOnUse" spreadMethod="pad"><stop offset="0%" stop-color="#6139DA"/><stop offset="50%" stop-color="#3058DA"/><stop offset="100%" stop-color="#0078DA"/></linearGradient><mask id="__lottie_element_317" mask-type="luminance"><g filter="url(#__lottie_element_318)"><g style="display:block" opacity="1"><g opacity="1"><path fill="url(#__lottie_element_321)" fill-opacity="1" d="M 0 -112.698 C 62.1978 -112.698 112.698 -62.1978 112.698 0 C 112.698 62.1978 62.1978 112.698 0 112.698 C -62.1978 112.698 -112.698 62.1978 -112.698 0 C -112.698 -62.1978 -62.1978 -112.698 0 -112.698 Z" transform="matrix(1, 0, 0, 1, 123.814, 124.954) matrix(1, 0, 0, 1, 0, 0)"/></g></g></g></mask><filter id="__lottie_element_318" width="100%" height="100%" x="0%" y="0%" filterUnits="objectBoundingBox"><feColorMatrix color-interpolation-filters="sRGB" type="matrix" values="0 0 0 1 0 0 0 0 1 0 0 0 0 1 0 0 0 0 1 1"/></filter><linearGradient id="__lottie_element_321" x1="56.52" x2="-56.197" y1="98.525" y2="-96.706" gradientUnits="userSpaceOnUse" spreadMethod="pad"><stop offset="0%" stop-color="#6139DA"/><stop offset="50%" stop-color="#3058DA"/><stop offset="100%" stop-color="#0078DA"/></linearGradient><mask id="__lottie_element_325" mask-type="luminance"><g filter="url(#__lottie_element_326)"><g style="display:block" opacity="1"><g opacity="1"><path fill="url(#__lottie_element_329)" fill-opacity="1" d="M 0 -112.698 C 62.1978 -112.698 112.698 -62.1978 112.698 0 C 112.698 62.1978 62.1978 112.698 0 112.698 C -62.1978 112.698 -112.698 62.1978 -112.698 0 C -112.698 -62.1978 -62.1978 -112.698 0 -112.698 Z" transform="matrix(1, 0, 0, 1, 123.814, 124.954) matrix(1, 0, 0, 1, 0, 0)"/></g></g></g></mask><filter id="__lottie_element_326" width="100%" height="100%" x="0%" y="0%" filterUnits="objectBoundingBox"><feColorMatrix color-interpolation-filters="sRGB" type="matrix" values="0 0 0 1 0 0 0 0 1 0 0 0 0 1 0 0 0 0 1 1"/></filter><linearGradient id="__lottie_element_329" x1="56.52" x2="-56.197" y1="98.525" y2="-96.706" gradientUnits="userSpaceOnUse" spreadMethod="pad"><stop offset="0%" stop-color="#6139DA"/><stop offset="50%" stop-color="#3058DA"/><stop offset="100%" stop-color="#0078DA"/></linearGradient><mask id="__lottie_element_333" mask-type="luminance"><g filter="url(#__lottie_element_334)"><g style="display:block" opacity="1"><g opacity="1"><path fill="url(#__lottie_element_337)" fill-opacity="1" d="M 0 -112.698 C 62.1978 -112.698 112.698 -62.1978 112.698 0 C 112.698 62.1978 62.1978 112.698 0 112.698 C -62.1978 112.698 -112.698 62.1978 -112.698 0 C -112.698 -62.1978 -62.1978 -112.698 0 -112.698 Z" transform="matrix(1, 0, 0, 1, 123.814, 124.954) matrix(1, 0, 0, 1, 0, 0)"/></g></g></g></mask><filter id="__lottie_element_334" width="100%" height="100%" x="0%" y="0%" filterUnits="objectBoundingBox"><feColorMatrix color-interpolation-filters="sRGB" type="matrix" values="0 0 0 1 0 0 0 0 1 0 0 0 0 1 0 0 0 0 1 1"/></filter><linearGradient id="__lottie_element_337" x1="56.52" x2="-56.197" y1="98.525" y2="-96.706" gradientUnits="userSpaceOnUse" spreadMethod="pad"><stop offset="0%" stop-color="#6139DA"/><stop offset="50%" stop-color="#3058DA"/><stop offset="100%" stop-color="#0078DA"/></linearGradient><mask id="__lottie_element_341" mask-type="luminance"><g filter="url(#__lottie_element_342)"><g style="display:block" opacity="1"><g opacity="1"><path fill="url(#__lottie_element_345)" fill-opacity="1" d="M 0 -112.698 C 62.1978 -112.698 112.698 -62.1978 112.698 0 C 112.698 62.1978 62.1978 112.698 0 112.698 C -62.1978 112.698 -112.698 62.1978 -112.698 0 C -112.698 -62.1978 -62.1978 -112.698 0 -112.698 Z" transform="matrix(1, 0, 0, 1, 123.814, 124.954) matrix(1, 0, 0, 1, 0, 0)"/></g></g></g></mask><filter id="__lottie_element_342" width="100%" height="100%" x="0%" y="0%" filterUnits="objectBoundingBox"><feColorMatrix color-interpolation-filters="sRGB" type="matrix" values="0 0 0 1 0 0 0 0 1 0 0 0 0 1 0 0 0 0 1 1"/></filter><linearGradient id="__lottie_element_345" x1="56.52" x2="-56.197" y1="98.525" y2="-96.706" gradientUnits="userSpaceOnUse" spreadMethod="pad"><stop offset="0%" stop-color="#6139DA"/><stop offset="50%" stop-color="#3058DA"/><stop offset="100%" stop-color="#0078DA"/></linearGradient><mask id="__lottie_element_349" mask-type="luminance"><g filter="url(#__lottie_element_350)"><g style="display:block" opacity="1"><g opacity="1"><path fill="url(#__lottie_element_353)" fill-opacity="1" d="M 0 -112.698 C 62.1978 -112.698 112.698 -62.1978 112.698 0 C 112.698 62.1978 62.1978 112.698 0 112.698 C -62.1978 112.698 -112.698 62.1978 -112.698 0 C -112.698 -62.1978 -62.1978 -112.698 0 -112.698 Z" transform="matrix(1, 0, 0, 1, 123.814, 124.954) matrix(1, 0, 0, 1, 0, 0)"/></g></g></g></mask><filter id="__lottie_element_350" width="100%" height="100%" x="0%" y="0%" filterUnits="objectBoundingBox"><feColorMatrix color-interpolation-filters="sRGB" type="matrix" values="0 0 0 1 0 0 0 0 1 0 0 0 0 1 0 0 0 0 1 1"/></filter><linearGradient id="__lottie_element_353" x1="56.52" x2="-56.197" y1="98.525" y2="-96.706" gradientUnits="userSpaceOnUse" spreadMethod="pad"><stop offset="0%" stop-color="#6139DA"/><stop offset="50%" stop-color="#3058DA"/><stop offset="100%" stop-color="#0078DA"/></linearGradient><linearGradient id="__lottie_element_360" x1="56.52" x2="-56.197" y1="98.525" y2="-96.706" gradientUnits="userSpaceOnUse" spreadMethod="pad"><stop offset="0%" stop-color="#6139DA"/><stop offset="50%" stop-color="#3058DA"/><stop offset="100%" stop-color="#0078DA"/></linearGradient><clipPath id="__lottie_element_362"><path d="M 0 0 L 552 0 L 552 552 L 0 552 Z"/></clipPath><filter id="__lottie_element_379" width="300%" height="300%" x="-100%" y="-100%" filterUnits="objectBoundingBox"><feGaussianBlur edgeMode="duplicate" stdDeviation="3"/></filter><filter id="__lottie_element_382" width="300%" height="300%" x="-100%" y="-100%" filterUnits="objectBoundingBox"><feGaussianBlur edgeMode="duplicate" stdDeviation="3"/></filter><filter id="__lottie_element_385" width="300%" height="300%" x="-100%" y="-100%" filterUnits="objectBoundingBox"><feGaussianBlur edgeMode="duplicate" stdDeviation="6"/></filter><linearGradient id="__lottie_element_386" x1="56.52" x2="-56.197" y1="98.525" y2="-96.706" gradientUnits="userSpaceOnUse" spreadMethod="pad"><stop offset="0%" stop-color="#6139DA"/><stop offset="50%" stop-color="#3058DA"/><stop offset="100%" stop-color="#0078DA"/></linearGradient></defs><g clip-path="url(#__lottie_element_266)"><g style="display:block" clip-path="url(#__lottie_element_268)" opacity="1" transform="matrix(1, 0, 0, 1, 0, 0)"><g style="display:none" opacity="1"><g opacity="1"><path fill="#FFF" fill-opacity="1" d="M 23.7713 -43.7389 C 14.5213 -44.2389 20.5213 -36.4889 20.5213 -36.4889 C 20.5213 -36.4889 28.7063 -13.8379 32.9563 -6.08792 C 37.2063 1.66208 40.9563 -3.08792 40.9563 -3.08792 C 40.9563 -3.08792 78.6486 -38.5942 78.6486 -38.5942 C 78.6486 -38.5942 33.0213 -43.2389 23.7713 -43.7389 Z" transform="matrix(-0.999043, 0.0174384, -0.0174384, -0.999043, 171.276, 384.358) matrix(0.26748, 0, 0, 0.26748, 0, 0)"/></g></g><g style="display:none"><g><path/></g></g><g filter="url(#__lottie_element_385)" style="display:block" opacity=".4" transform="matrix(1, 0, 0, 1, 274.814, 274.954)"><g opacity="1"><path fill="url(#__lottie_element_386)" fill-opacity="1" d="M 0 -112.698 C 62.1978 -112.698 112.698 -62.1978 112.698 0 C 112.698 62.1978 62.1978 112.698 0 112.698 C -62.1978 112.698 -112.698 62.1978 -112.698 0 C -112.698 -62.1978 -62.1978 -112.698 0 -112.698 Z" transform="matrix(1, 0, 0, 1, 0, 0)"/></g></g><g style="display:block" clip-path="url(#__lottie_element_274)" opacity="1" transform="matrix(1, 0, 0, 1, 151, 151)"><g style="display:block" opacity="1"><g opacity="1"><path fill="url(#__lottie_element_360)" fill-opacity="1" d="M 0 -112.698 C 62.1978 -112.698 112.698 -62.1978 112.698 0 C 112.698 62.1978 62.1978 112.698 0 112.698 C -62.1978 112.698 -112.698 62.1978 -112.698 0 C -112.698 -62.1978 -62.1978 -112.698 0 -112.698 Z" transform="matrix(1, 0, 0, 1, 123.814, 124.954) matrix(1, 0, 0, 1, 0, 0)"/></g></g><g style="display:block" mask="url(&quot;#__lottie_element_286&quot;)"><g opacity=".2"><g opacity="1"><path fill="#FFF" fill-opacity="1" d="M 2.149 -9.635 C 1.905 -10.486 1.016 -10.978 0.165 -10.734 C 0.165 -10.734 0.08 -10.71 0.08 -10.71 C -4.034 -9.53 -6.34 -4.978 -5.068 -0.544 C -5.068 -0.544 -2.149 9.635 -2.149 9.635 C -1.905 10.486 -1.016 10.978 -0.165 10.734 C -0.165 10.734 -0.08 10.71 -0.08 10.71 C 4.034 9.53 6.34 4.978 5.068 0.544 C 5.068 0.544 2.149 -9.635 2.149 -9.635 Z" transform="matrix(1, 0, 0, 1, -111, -141) matrix(1, 0, 0, 1, 431.132, 310.852)"/></g><g opacity="1"><path fill="#FFF" fill-opacity="1" d="M -12.488 -2.681 C -12.488 -2.681 2.873 5.834 2.873 5.834 C 5.466 7.271 8.492 7.365 11.058 6.087 C 11.058 6.087 11.97 5.633 11.97 5.633 C 13.095 5.073 13.167 3.495 12.098 2.834 C 12.098 2.834 -1.558 -5.606 -1.558 -5.606 C -5.216 -7.867 -9.745 -7.302 -12.622 -4.226 C -12.622 -4.226 -12.858 -3.973 -12.858 -3.973" transform="matrix(1, 0, 0, 1, -111, -141) matrix(1, 0, 0, 1, 506.505, 241.666)"/></g><g opacity="1"><path fill="#FFF" fill-opacity="1" d="M 0.518 9.24 C -0.333 9.484 -1.221 8.992 -1.465 8.141 C -1.465 8.141 -4.305 -1.762 -4.305 -1.762 C -5.24 -5.024 -3.545 -8.372 -0.518 -9.24 C -0.518 -9.24 -0.518 -9.24 -0.518 -9.24 C 0.333 -9.484 1.221 -8.992 1.465 -8.141 C 1.465 -8.141 4.305 1.762 4.305 1.762 C 5.24 5.024 3.545 8.372 0.518 9.24 C 0.518 9.24 0.518 9.24 0.518 9.24 Z" transform="matrix(1, 0, 0, 1, -111, -141) matrix(1, 0, 0, 1, 519.029, 221.825)"/></g><g opacity="1"><path fill="#FFF" fill-opacity="1" d="M -6.337 7.309 C -7.188 7.553 -8.076 7.061 -8.32 6.21 C -8.32 6.21 -8.513 5.537 -8.513 5.537 C -9.77 1.154 -7.492 -3.344 -3.426 -4.51 C -3.426 -4.51 6.337 -7.309 6.337 -7.309 C 7.188 -7.553 8.076 -7.061 8.32 -6.21 C 8.32 -6.21 8.513 -5.537 8.513 -5.537 C 9.77 -1.154 7.492 3.344 3.426 4.51 C 3.426 4.51 -6.337 7.309 -6.337 7.309 Z" transform="matrix(1, 0, 0, 1, -111, -141) matrix(1, 0, 0, 1, 541.437, 237.275)"/></g><g opacity="1"><path fill="#FFF" fill-opacity="1" d="M -26.55 9.021 C -26.55 9.021 -29.345 0.876 -29.345 0.876 C -29.491 0.449 -29.452 -0.02 -29.235 -0.416 C -29.235 -0.416 -23.277 -11.275 -23.277 -11.275 C -21.224 -15.017 -17.88 -17.73 -13.923 -18.865 C -13.923 -18.865 -4.639 -21.528 -4.639 -21.528 C 0.202 -22.916 5.463 -21.801 9.6 -18.512 C 9.6 -18.512 21.841 -8.781 21.841 -8.781 C 22.102 -8.573 22.293 -8.288 22.385 -7.967 C 22.385 -7.967 29.37 16.393 29.37 16.393 C 29.614 17.244 29.121 18.132 28.27 18.376 C 28.27 18.376 15.458 22.05 15.458 22.05 C 15.004 22.18 14.514 22.103 14.122 21.84 C 14.122 21.84 3.934 15.006 3.934 15.006 C 3.515 14.725 2.987 14.657 2.51 14.824 C 2.51 14.824 -8.609 18.721 -8.609 18.721 C -15.884 21.27 -23.95 16.909 -26.55 9.021 Z" transform="matrix(1, 0, 0, 1, -111, -141) matrix(1, 0, 0, 1, 560.371, 271.382)"/></g><g opacity="1"><path fill="#FFF" fill-opacity="1" d="M -6.495 -9.724 C -6.495 -9.724 -2.472 4.305 -2.472 4.305 C -1.303 8.383 2.712 10.809 6.495 9.724 C 6.495 9.724 6.495 9.724 6.495 9.724 C 6.495 9.724 2.472 -4.305 2.472 -4.305 C 1.303 -8.383 -2.712 -10.809 -6.495 -9.724 C -6.495 -9.724 -6.495 -9.724 -6.495 -9.724 Z" transform="matrix(1, 0, 0, 1, -111, -141) matrix(1, 0, 0, 1, 598.933, 277.818)"/></g></g></g><g style="display:block" mask="url(&quot;#__lottie_element_349&quot;)"><g opacity=".2"><g opacity="1"><path fill="#FFF" fill-opacity="1" d="M 2.149 -9.635 C 1.905 -10.486 1.016 -10.978 0.165 -10.734 C 0.165 -10.734 0.08 -10.71 0.08 -10.71 C -4.034 -9.53 -6.34 -4.978 -5.068 -0.544 C -5.068 -0.544 -2.149 9.635 -2.149 9.635 C -1.905 10.486 -1.016 10.978 -0.165 10.734 C -0.165 10.734 -0.08 10.71 -0.08 10.71 C 4.034 9.53 6.34 4.978 5.068 0.544 C 5.068 0.544 2.149 -9.635 2.149 -9.635 Z" transform="matrix(1, 0, 0, 1, -111, -141) matrix(1, 0, 0, 1, 431.132, 310.852)"/></g><g opacity="1"><path fill="#FFF" fill-opacity="1" d="M -12.488 -2.681 C -12.488 -2.681 2.873 5.834 2.873 5.834 C 5.466 7.271 8.492 7.365 11.058 6.087 C 11.058 6.087 11.97 5.633 11.97 5.633 C 13.095 5.073 13.167 3.495 12.098 2.834 C 12.098 2.834 -1.558 -5.606 -1.558 -5.606 C -5.216 -7.867 -9.745 -7.302 -12.622 -4.226 C -12.622 -4.226 -12.858 -3.973 -12.858 -3.973" transform="matrix(1, 0, 0, 1, -111, -141) matrix(1, 0, 0, 1, 506.505, 241.666)"/></g><g opacity="1"><path fill="#FFF" fill-opacity="1" d="M 0.518 9.24 C -0.333 9.484 -1.221 8.992 -1.465 8.141 C -1.465 8.141 -4.305 -1.762 -4.305 -1.762 C -5.24 -5.024 -3.545 -8.372 -0.518 -9.24 C -0.518 -9.24 -0.518 -9.24 -0.518 -9.24 C 0.333 -9.484 1.221 -8.992 1.465 -8.141 C 1.465 -8.141 4.305 1.762 4.305 1.762 C 5.24 5.024 3.545 8.372 0.518 9.24 C 0.518 9.24 0.518 9.24 0.518 9.24 Z" transform="matrix(1, 0, 0, 1, -111, -141) matrix(1, 0, 0, 1, 519.029, 221.825)"/></g><g opacity="1"><path fill="#FFF" fill-opacity="1" d="M -6.337 7.309 C -7.188 7.553 -8.076 7.061 -8.32 6.21 C -8.32 6.21 -8.513 5.537 -8.513 5.537 C -9.77 1.154 -7.492 -3.344 -3.426 -4.51 C -3.426 -4.51 6.337 -7.309 6.337 -7.309 C 7.188 -7.553 8.076 -7.061 8.32 -6.21 C 8.32 -6.21 8.513 -5.537 8.513 -5.537 C 9.77 -1.154 7.492 3.344 3.426 4.51 C 3.426 4.51 -6.337 7.309 -6.337 7.309 Z" transform="matrix(1, 0, 0, 1, -111, -141) matrix(1, 0, 0, 1, 541.437, 237.275)"/></g><g opacity="1"><path fill="#FFF" fill-opacity="1" d="M -26.55 9.021 C -26.55 9.021 -29.345 0.876 -29.345 0.876 C -29.491 0.449 -29.452 -0.02 -29.235 -0.416 C -29.235 -0.416 -23.277 -11.275 -23.277 -11.275 C -21.224 -15.017 -17.88 -17.73 -13.923 -18.865 C -13.923 -18.865 -4.639 -21.528 -4.639 -21.528 C 0.202 -22.916 5.463 -21.801 9.6 -18.512 C 9.6 -18.512 21.841 -8.781 21.841 -8.781 C 22.102 -8.573 22.293 -8.288 22.385 -7.967 C 22.385 -7.967 29.37 16.393 29.37 16.393 C 29.614 17.244 29.121 18.132 28.27 18.376 C 28.27 18.376 15.458 22.05 15.458 22.05 C 15.004 22.18 14.514 22.103 14.122 21.84 C 14.122 21.84 3.934 15.006 3.934 15.006 C 3.515 14.725 2.987 14.657 2.51 14.824 C 2.51 14.824 -8.609 18.721 -8.609 18.721 C -15.884 21.27 -23.95 16.909 -26.55 9.021 Z" transform="matrix(1, 0, 0, 1, -111, -141) matrix(1, 0, 0, 1, 560.371, 271.382)"/></g><g opacity="1"><path fill="#FFF" fill-opacity="1" d="M -6.495 -9.724 C -6.495 -9.724 -2.472 4.305 -2.472 4.305 C -1.303 8.383 2.712 10.809 6.495 9.724 C 6.495 9.724 6.495 9.724 6.495 9.724 C 6.495 9.724 2.472 -4.305 2.472 -4.305 C 1.303 -8.383 -2.712 -10.809 -6.495 -9.724 C -6.495 -9.724 -6.495 -9.724 -6.495 -9.724 Z" transform="matrix(1, 0, 0, 1, -111, -141) matrix(1, 0, 0, 1, 598.933, 277.818)"/></g></g></g><g style="display:block" mask="url(&quot;#__lottie_element_341&quot;)"><g opacity=".2"><g opacity="1"><path fill="#FFF" fill-opacity="1" d="M -108.781 2.764 C -109.303 3.795 -110.712 3.951 -111.448 3.06 C -111.448 3.06 -114.088 -0.137 -114.088 -0.137 C -116.912 -3.558 -117.76 -8.302 -116.281 -12.418 C -116.281 -12.418 -116 -13.2 -116 -13.2 C -114.316 -17.888 -110.661 -21.396 -106.098 -22.705 C -106.098 -22.705 -104.597 -23.136 -104.597 -23.136 C -104.597 -23.136 -104.86 -24.053 -104.86 -24.053 C -107.313 -32.609 -103.052 -41.434 -95.212 -44.033 C -95.212 -44.033 -86.914 -46.784 -86.914 -46.784 C -86.914 -46.784 -86.914 -46.784 -86.914 -46.784 C -88.494 -52.292 -87.77 -58.166 -84.932 -62.874 C -84.932 -62.874 -84.017 -64.392 -84.017 -64.392 C -83.491 -65.264 -83.901 -66.399 -84.863 -66.734 C -84.863 -66.734 -87.061 -67.498 -87.061 -67.498 C -87.804 -67.756 -88.624 -67.438 -88.998 -66.746 C -88.998 -66.746 -97.553 -50.924 -97.553 -50.924 C -97.553 -50.924 -97.553 -50.924 -97.553 -50.924 C -102.717 -55.695 -103.835 -63.704 -100.145 -69.508 C -100.145 -69.508 -97.271 -74.029 -97.271 -74.029 C -91.624 -82.911 -80.278 -85.287 -71.393 -79.447 C -71.393 -79.447 -64.802 -75.115 -64.802 -75.115 C -64.39 -74.844 -63.876 -74.777 -63.409 -74.935 C -63.409 -74.935 -33.246 -85.109 -33.246 -85.109 C -32.803 -85.259 -32.447 -85.595 -32.272 -86.029 C -32.272 -86.029 -30.752 -89.795 -30.752 -89.795 C -28.242 -96.016 -23.308 -100.689 -17.197 -102.632 C -17.197 -102.632 -8.303 -105.46 -8.303 -105.46 C -7.864 -105.6 -7.506 -105.921 -7.321 -106.343 C -7.321 -106.343 -4.262 -113.305 -4.262 -113.305 C -2.112 -118.197 1.929 -121.799 6.849 -123.21 C 6.849 -123.21 20.096 -127.008 20.096 -127.008 C 26.59 -128.87 33.629 -127.721 39.507 -123.837 C 39.507 -123.837 45.903 -119.611 45.903 -119.611 C 46.294 -119.353 46.779 -119.278 47.229 -119.407 C 47.229 -119.407 73.922 -127.061 73.922 -127.061 C 77.548 -128.101 81.466 -127.593 84.861 -125.643 C 84.861 -125.643 89.19 -123.157 89.19 -123.157 C 89.566 -122.941 90.013 -122.886 90.43 -123.006 C 90.43 -123.006 108.077 -128.066 108.077 -128.066 C 113.681 -129.673 118.741 -123.463 116.42 -117.825 C 116.42 -117.825 111.797 -106.593 111.797 -106.593 C 111.611 -106.14 111.227 -105.797 110.756 -105.662 C 110.756 -105.662 95.963 -101.42 95.963 -101.42 C 95.094 -101.171 94.603 -100.254 94.877 -99.393 C 94.877 -99.393 97.813 -90.161 97.813 -90.161 C 99.23 -85.704 98.971 -80.903 97.09 -76.787 C 97.09 -76.787 90.88 -63.197 90.88 -63.197 C 88.937 -58.944 85.424 -55.784 81.146 -54.44 C 81.146 -54.44 74.628 -52.393 74.628 -52.393 C 73.831 -52.143 73.36 -51.322 73.545 -50.508 C 73.545 -50.508 73.761 -49.555 73.761 -49.555 C 75.205 -43.189 74.114 -36.576 70.751 -31.306 C 70.751 -31.306 67.207 -25.755 67.207 -25.755 C 66.96 -25.367 66.89 -24.892 67.017 -24.45 C 67.017 -24.45 69.379 -16.215 69.379 -16.215 C 70.914 -10.863 65.722 -6.432 61.092 -9.142 C 61.092 -9.142 34.94 -24.448 34.94 -24.448 C 34.117 -24.93 33.058 -24.591 32.668 -23.721 C 32.668 -23.721 20.506 3.382 20.506 3.382 C 20.096 4.297 18.956 4.614 18.131 4.044 C 18.131 4.044 4.046 -5.7 4.046 -5.7 C 1.907 -7.18 -0.801 -7.209 -2.859 -5.775 C -2.859 -5.775 -2.859 -5.775 -2.859 -5.775 C -4.687 -4.501 -7.048 -4.371 -9.076 -5.434 C -9.076 -5.434 -17.764 -9.987 -17.764 -9.987 C -18.519 -10.383 -19.452 -10.118 -19.887 -9.385 C -19.887 -9.385 -21.311 -6.985 -21.311 -6.985 C -21.755 -6.236 -21.52 -5.27 -20.782 -4.808 C -20.782 -4.808 -2.006 6.94 -2.006 6.94 C -1.258 7.408 -1.028 8.392 -1.492 9.142 C -1.492 9.142 -5.065 14.92 -5.065 14.92 C -8.528 20.52 -15.514 22.246 -21.232 18.914 C -21.232 18.914 -37.874 9.218 -37.874 9.218 C -38.7 8.737 -39.76 9.08 -40.147 9.954 C -40.147 9.954 -41.891 13.895 -41.891 13.895 C -42.216 14.63 -41.947 15.491 -41.262 15.911 C -41.262 15.911 -50.079 4.779 -50.079 4.779 C -49.64 4.653 -49.275 4.346 -49.077 3.934 C -49.077 3.934 -44.139 -6.31 -44.139 -6.31 C -43.812 -6.989 -44.001 -7.803 -44.594 -8.268 C -44.594 -8.268 -58.235 -18.96 -58.235 -18.96 C -58.64 -19.277 -59.172 -19.382 -59.666 -19.24 C -59.666 -19.24 -68.118 -16.816 -68.118 -16.816 C -68.655 -16.662 -69.074 -16.24 -69.222 -15.701 C -69.222 -15.701 -71.014 -9.194 -71.014 -9.194 C -71.162 -8.655 -71.581 -8.232 -72.118 -8.078 C -72.118 -8.078 -83.588 -4.789 -83.588 -4.789 C -84.118 -4.637 -84.689 -4.768 -85.1 -5.136 C -85.1 -5.136 -93.753 -12.88 -93.753 -12.88 C -94.164 -13.248 -94.734 -13.379 -95.264 -13.227 C -95.264 -13.227 -100.933 -11.602 -100.933 -11.602 C -101.362 -11.479 -101.719 -11.183 -101.921 -10.785 C -101.921 -10.785 -108.781 2.764 -108.781 2.764 Z" transform="matrix(1, 0, 0, 1, -111, -141) matrix(1, 0, 0, 1, 431.675, 226.838)"/></g><g opacity="1"><path fill="#FFF" fill-opacity="1" d="M 0 0" transform="matrix(1, 0, 0, 1, -111, -141) matrix(1, 0, 0, 1, 431.132, 310.852)"/></g></g></g><g style="display:block" mask="url(&quot;#__lottie_element_333&quot;)"><g opacity=".2"><g opacity="1"><path fill="#FFF" fill-opacity="1" d="M -41.262 15.911 C -41.262 15.911 -6.635 37.122 -6.635 37.122 C -5.935 37.551 -5.671 38.497 -6.048 39.226 C -6.048 39.226 -18.428 63.139 -18.428 63.139 C -18.616 63.503 -18.658 63.924 -18.545 64.318 C -18.545 64.318 -8.892 97.982 -8.892 97.982 C -5.365 110.283 -11.476 122.974 -22.739 126.736 C -22.739 126.736 -27.245 128.241 -27.245 128.241 C -27.691 128.39 -28.181 128.335 -28.583 128.092 C -28.583 128.092 -34.918 124.264 -34.918 124.264 C -38.207 122.277 -40.671 119.009 -41.769 115.18 C -41.769 115.18 -47.462 95.327 -47.462 95.327 C -47.566 94.964 -47.794 94.65 -48.108 94.439 C -48.108 94.439 -58.392 87.527 -58.392 87.527 C -58.702 87.318 -58.93 87.008 -59.036 86.649 C -59.036 86.649 -65.697 64.011 -65.697 64.011 C -65.942 63.18 -66.803 62.694 -67.641 62.913 C -67.641 62.913 -79.779 66.088 -79.779 66.088 C -94.158 69.849 -109.146 60.366 -113.281 44.891 C -113.281 44.891 -115.49 36.626 -115.49 36.626 C -115.573 36.314 -115.56 35.985 -115.453 35.681 C -115.453 35.681 -111.171 23.486 -111.171 23.486 C -108.495 15.864 -102.598 10.139 -95.21 7.988 C -95.21 7.988 -83.235 4.501 -83.235 4.501 C -82.751 4.36 -82.229 4.455 -81.825 4.758 C -81.825 4.758 -73.66 10.88 -73.66 10.88 C -73.258 11.181 -72.739 11.276 -72.256 11.138 C -72.256 11.138 -50.079 4.779 -50.079 4.779 C -49.64 4.653 -41.947 15.491 -41.262 15.911 Z" transform="matrix(1, 0, 0, 1, -111, -141) matrix(1, 0, 0, 1, 431.675, 226.838)"/></g><g opacity="1"><path fill="#FFF" fill-opacity="1" d="M 2.149 -9.635 C 1.905 -10.486 1.016 -10.978 0.165 -10.734 C 0.165 -10.734 0.08 -10.71 0.08 -10.71 C -4.034 -9.53 -6.34 -4.978 -5.068 -0.544 C -5.068 -0.544 -2.149 9.635 -2.149 9.635 C -1.905 10.486 -1.016 10.978 -0.165 10.734 C -0.165 10.734 -0.08 10.71 -0.08 10.71 C 4.034 9.53 6.34 4.978 5.068 0.544 C 5.068 0.544 2.149 -9.635 2.149 -9.635 Z" transform="matrix(1, 0, 0, 1, -111, -141) matrix(1, 0, 0, 1, 431.132, 310.852)"/></g><g opacity="1"><path fill="#FFF" fill-opacity="1" d="M 508.577 101.788" transform="matrix(1, 0, 0, 1, -111, -141) matrix(1, 0, 0, 1, 0, 0)"/></g></g></g><g style="display:block" mask="url(&quot;#__lottie_element_325&quot;)"><g opacity=".2"><g opacity="1"><path fill="#FFF" fill-opacity="1" d="M 35.411 -4.178 C 35.809 -3.893 36.315 -3.806 36.786 -3.941 C 36.786 -3.941 49.175 -7.493 49.175 -7.493 C 52.515 -8.451 56.12 -8.036 59.289 -6.328 C 59.289 -6.328 74.836 2.053 74.836 2.053 C 75.205 2.252 75.635 2.298 76.038 2.183 C 76.038 2.183 79.178 1.282 79.178 1.282 C 83.907 -0.074 88.925 2.959 90.387 8.056 C 90.387 8.056 94.976 24.058 94.976 24.058 C 95.089 24.451 95.047 24.871 94.86 25.234 C 94.86 25.234 69.475 74.518 69.475 74.518 C 69.296 74.866 69.25 75.268 69.347 75.648 C 69.347 75.648 75.931 101.484 75.931 101.484 C 76.231 102.663 75.161 103.733 73.982 103.433 C 73.982 103.433 68.742 102.1 68.742 102.1 C 61.756 100.322 56.094 94.646 53.991 87.311 C 53.991 87.311 42.933 48.747 42.933 48.747 C 42.782 48.22 42.373 47.807 41.848 47.651 C 41.848 47.651 31.507 44.585 31.507 44.585 C 31.361 44.542 31.221 44.48 31.092 44.4 C 26.926 41.813 23.807 37.63 22.405 32.742 C 22.405 32.742 19.116 21.274 19.116 21.274 C 17.563 15.859 18.098 10.093 20.597 5.273 C 20.597 5.273 22.243 2.099 22.243 2.099 C 22.615 1.381 35.411 -4.178 35.411 -4.178 Z" transform="matrix(1, 0, 0, 1, -111, -141) matrix(1, 0, 0, 1, 196.75, 297.989)"/></g></g></g><g style="display:block" mask="url(&quot;#__lottie_element_317&quot;)"><g opacity=".2"><g opacity="1"><path fill="#FFF" fill-opacity="1" d="M -89.002 -56.666 C -89.713 -55.447 -91.539 -55.675 -91.928 -57.032 C -91.928 -57.032 -94.519 -66.069 -94.519 -66.069 C -96.404 -72.644 -92.987 -79.393 -86.887 -81.142 C -86.887 -81.142 -9.836 -103.236 -9.836 -103.236 C -4.902 -104.651 -0.159 -99.8 -1.272 -94.478 C -1.272 -94.478 -3.085 -85.809 -3.085 -85.809 C -3.221 -85.16 -2.943 -84.494 -2.386 -84.134 C -2.386 -84.134 6.997 -78.07 6.997 -78.07 C 7.386 -77.819 7.864 -77.748 8.309 -77.876 C 8.309 -77.876 19.939 -81.211 19.939 -81.211 C 20.79 -81.455 21.283 -82.343 21.039 -83.194 C 21.039 -83.194 17.987 -93.836 17.987 -93.836 C 17.354 -96.042 19.39 -97.934 21.371 -96.982 C 21.371 -96.982 30.683 -92.504 30.683 -92.504 C 31.037 -92.334 31.442 -92.3 31.82 -92.408 C 31.82 -92.408 37.817 -94.128 37.817 -94.128 C 43.199 -95.671 47.949 -89.508 45.431 -84.249 C 45.431 -84.249 24.988 -41.558 24.988 -41.558 C 22.765 -36.917 18.901 -33.45 14.211 -31.891 C 14.211 -31.891 1.155 -27.55 1.155 -27.55 C 0.339 -27.279 -0.117 -26.412 0.12 -25.586 C 0.12 -25.586 3.117 -15.131 3.117 -15.131 C 3.361 -14.28 4.25 -13.788 5.101 -14.032 C 5.101 -14.032 7.634 -14.758 7.634 -14.758 C 13.525 -16.447 19.918 -15.272 25.128 -11.541 C 25.128 -11.541 35.411 -4.178 35.411 -4.178 C 35.584 -4.054 30.383 -2.109 27.551 -0.794 C 23.848 0.925 22.243 2.099 22.243 2.099 C 22.615 1.381 22.394 0.497 21.727 0.039 C 21.727 0.039 12.44 -6.341 12.44 -6.341 C 12.045 -6.612 11.55 -6.692 11.09 -6.56 C 11.09 -6.56 0.147 -3.423 0.147 -3.423 C -0.275 -3.302 -0.727 -3.359 -1.106 -3.581 C -1.106 -3.581 -38.299 -25.403 -38.299 -25.403 C -41.94 -27.54 -44.741 -31.036 -46.138 -35.188 C -46.138 -35.188 -53.789 -57.935 -53.789 -57.935 C -53.933 -58.363 -54.25 -58.71 -54.663 -58.892 C -54.663 -58.892 -71.747 -66.409 -71.747 -66.409 C -77.087 -68.759 -83.09 -66.794 -86.046 -61.73 C -86.046 -61.73 -89.002 -56.666 -89.002 -56.666 Z" transform="matrix(1, 0, 0, 1, -111, -141) matrix(1, 0, 0, 1, 196.75, 297.989)"/></g></g></g><g style="display:block" mask="url(&quot;#__lottie_element_309&quot;)"><g opacity=".2"><g opacity="1"><path fill="#FFF" fill-opacity="1" d="M 2.149 -9.635 C 1.905 -10.486 1.016 -10.978 0.165 -10.734 C 0.165 -10.734 0.08 -10.71 0.08 -10.71 C -4.034 -9.53 -6.34 -4.978 -5.068 -0.544 C -5.068 -0.544 -2.149 9.635 -2.149 9.635 C -1.905 10.486 -1.016 10.978 -0.165 10.734 C -0.165 10.734 -0.08 10.71 -0.08 10.71 C 4.034 9.53 6.34 4.978 5.068 0.544 C 5.068 0.544 2.149 -9.635 2.149 -9.635 Z" transform="matrix(1, 0, 0, 1, -591, -16) matrix(1, 0, 0, 1, 431.132, 310.852)"/></g><g opacity="1"><path fill="#FFF" fill-opacity="1" d="M -12.488 -2.681 C -12.488 -2.681 2.873 5.834 2.873 5.834 C 5.466 7.271 8.492 7.365 11.058 6.087 C 11.058 6.087 11.97 5.633 11.97 5.633 C 13.095 5.073 13.167 3.495 12.098 2.834 C 12.098 2.834 -1.558 -5.606 -1.558 -5.606 C -5.216 -7.867 -9.745 -7.302 -12.622 -4.226 C -12.622 -4.226 -12.858 -3.973 -12.858 -3.973" transform="matrix(1, 0, 0, 1, -591, -16) matrix(1, 0, 0, 1, 506.505, 241.666)"/></g><g opacity="1"><path fill="#FFF" fill-opacity="1" d="M 0.518 9.24 C -0.333 9.484 -1.221 8.992 -1.465 8.141 C -1.465 8.141 -4.305 -1.762 -4.305 -1.762 C -5.24 -5.024 -3.545 -8.372 -0.518 -9.24 C -0.518 -9.24 -0.518 -9.24 -0.518 -9.24 C 0.333 -9.484 1.221 -8.992 1.465 -8.141 C 1.465 -8.141 4.305 1.762 4.305 1.762 C 5.24 5.024 3.545 8.372 0.518 9.24 C 0.518 9.24 0.518 9.24 0.518 9.24 Z" transform="matrix(1, 0, 0, 1, -591, -16) matrix(1, 0, 0, 1, 519.029, 221.825)"/></g><g opacity="1"><path fill="#FFF" fill-opacity="1" d="M -6.337 7.309 C -7.188 7.553 -8.076 7.061 -8.32 6.21 C -8.32 6.21 -8.513 5.537 -8.513 5.537 C -9.77 1.154 -7.492 -3.344 -3.426 -4.51 C -3.426 -4.51 6.337 -7.309 6.337 -7.309 C 7.188 -7.553 8.076 -7.061 8.32 -6.21 C 8.32 -6.21 8.513 -5.537 8.513 -5.537 C 9.77 -1.154 7.492 3.344 3.426 4.51 C 3.426 4.51 -6.337 7.309 -6.337 7.309 Z" transform="matrix(1, 0, 0, 1, -591, -16) matrix(1, 0, 0, 1, 541.437, 237.275)"/></g><g opacity="1"><path fill="#FFF" fill-opacity="1" d="M -26.55 9.021 C -26.55 9.021 -29.345 0.876 -29.345 0.876 C -29.491 0.449 -29.452 -0.02 -29.235 -0.416 C -29.235 -0.416 -23.277 -11.275 -23.277 -11.275 C -21.224 -15.017 -17.88 -17.73 -13.923 -18.865 C -13.923 -18.865 -4.639 -21.528 -4.639 -21.528 C 0.202 -22.916 5.463 -21.801 9.6 -18.512 C 9.6 -18.512 21.841 -8.781 21.841 -8.781 C 22.102 -8.573 22.293 -8.288 22.385 -7.967 C 22.385 -7.967 29.37 16.393 29.37 16.393 C 29.614 17.244 29.121 18.132 28.27 18.376 C 28.27 18.376 15.458 22.05 15.458 22.05 C 15.004 22.18 14.514 22.103 14.122 21.84 C 14.122 21.84 3.934 15.006 3.934 15.006 C 3.515 14.725 2.987 14.657 2.51 14.824 C 2.51 14.824 -8.609 18.721 -8.609 18.721 C -15.884 21.27 -23.95 16.909 -26.55 9.021 Z" transform="matrix(1, 0, 0, 1, -591, -16) matrix(1, 0, 0, 1, 560.371, 271.382)"/></g><g opacity="1"><path fill="#FFF" fill-opacity="1" d="M -6.495 -9.724 C -6.495 -9.724 -2.472 4.305 -2.472 4.305 C -1.303 8.383 2.712 10.809 6.495 9.724 C 6.495 9.724 6.495 9.724 6.495 9.724 C 6.495 9.724 2.472 -4.305 2.472 -4.305 C 1.303 -8.383 -2.712 -10.809 -6.495 -9.724 C -6.495 -9.724 -6.495 -9.724 -6.495 -9.724 Z" transform="matrix(1, 0, 0, 1, -591, -16) matrix(1, 0, 0, 1, 598.933, 277.818)"/></g></g></g><g style="display:block" mask="url(&quot;#__lottie_element_301&quot;)"><g opacity=".2"><g opacity="1"><path fill="#FFF" fill-opacity="1" d="M -108.781 2.764 C -109.303 3.795 -110.712 3.951 -111.448 3.06 C -111.448 3.06 -114.088 -0.137 -114.088 -0.137 C -116.912 -3.558 -117.76 -8.302 -116.281 -12.418 C -116.281 -12.418 -116 -13.2 -116 -13.2 C -114.316 -17.888 -110.661 -21.396 -106.098 -22.705 C -106.098 -22.705 -104.597 -23.136 -104.597 -23.136 C -104.597 -23.136 -104.86 -24.053 -104.86 -24.053 C -107.313 -32.609 -103.052 -41.434 -95.212 -44.033 C -95.212 -44.033 -86.914 -46.784 -86.914 -46.784 C -86.914 -46.784 -86.914 -46.784 -86.914 -46.784 C -88.494 -52.292 -87.77 -58.166 -84.932 -62.874 C -84.932 -62.874 -84.017 -64.392 -84.017 -64.392 C -83.491 -65.264 -83.901 -66.399 -84.863 -66.734 C -84.863 -66.734 -87.061 -67.498 -87.061 -67.498 C -87.804 -67.756 -88.624 -67.438 -88.998 -66.746 C -88.998 -66.746 -97.553 -50.924 -97.553 -50.924 C -97.553 -50.924 -97.553 -50.924 -97.553 -50.924 C -102.717 -55.695 -103.835 -63.704 -100.145 -69.508 C -100.145 -69.508 -97.271 -74.029 -97.271 -74.029 C -91.624 -82.911 -80.278 -85.287 -71.393 -79.447 C -71.393 -79.447 -64.802 -75.115 -64.802 -75.115 C -64.39 -74.844 -63.876 -74.777 -63.409 -74.935 C -63.409 -74.935 -33.246 -85.109 -33.246 -85.109 C -32.803 -85.259 -32.447 -85.595 -32.272 -86.029 C -32.272 -86.029 -30.752 -89.795 -30.752 -89.795 C -28.242 -96.016 -23.308 -100.689 -17.197 -102.632 C -17.197 -102.632 -8.303 -105.46 -8.303 -105.46 C -7.864 -105.6 -7.506 -105.921 -7.321 -106.343 C -7.321 -106.343 -4.262 -113.305 -4.262 -113.305 C -2.112 -118.197 1.929 -121.799 6.849 -123.21 C 6.849 -123.21 20.096 -127.008 20.096 -127.008 C 26.59 -128.87 33.629 -127.721 39.507 -123.837 C 39.507 -123.837 45.903 -119.611 45.903 -119.611 C 46.294 -119.353 46.779 -119.278 47.229 -119.407 C 47.229 -119.407 73.922 -127.061 73.922 -127.061 C 77.548 -128.101 81.466 -127.593 84.861 -125.643 C 84.861 -125.643 89.19 -123.157 89.19 -123.157 C 89.566 -122.941 90.013 -122.886 90.43 -123.006 C 90.43 -123.006 108.077 -128.066 108.077 -128.066 C 113.681 -129.673 118.741 -123.463 116.42 -117.825 C 116.42 -117.825 111.797 -106.593 111.797 -106.593 C 111.611 -106.14 111.227 -105.797 110.756 -105.662 C 110.756 -105.662 95.963 -101.42 95.963 -101.42 C 95.094 -101.171 94.603 -100.254 94.877 -99.393 C 94.877 -99.393 97.813 -90.161 97.813 -90.161 C 99.23 -85.704 98.971 -80.903 97.09 -76.787 C 97.09 -76.787 90.88 -63.197 90.88 -63.197 C 88.937 -58.944 85.424 -55.784 81.146 -54.44 C 81.146 -54.44 74.628 -52.393 74.628 -52.393 C 73.831 -52.143 73.36 -51.322 73.545 -50.508 C 73.545 -50.508 73.761 -49.555 73.761 -49.555 C 75.205 -43.189 74.114 -36.576 70.751 -31.306 C 70.751 -31.306 67.207 -25.755 67.207 -25.755 C 66.96 -25.367 66.89 -24.892 67.017 -24.45 C 67.017 -24.45 69.379 -16.215 69.379 -16.215 C 70.914 -10.863 65.722 -6.432 61.092 -9.142 C 61.092 -9.142 34.94 -24.448 34.94 -24.448 C 34.117 -24.93 33.058 -24.591 32.668 -23.721 C 32.668 -23.721 20.506 3.382 20.506 3.382 C 20.096 4.297 18.956 4.614 18.131 4.044 C 18.131 4.044 4.046 -5.7 4.046 -5.7 C 1.907 -7.18 -0.801 -7.209 -2.859 -5.775 C -2.859 -5.775 -2.859 -5.775 -2.859 -5.775 C -4.687 -4.501 -7.048 -4.371 -9.076 -5.434 C -9.076 -5.434 -17.764 -9.987 -17.764 -9.987 C -18.519 -10.383 -19.452 -10.118 -19.887 -9.385 C -19.887 -9.385 -21.311 -6.985 -21.311 -6.985 C -21.755 -6.236 -21.52 -5.27 -20.782 -4.808 C -20.782 -4.808 -2.006 6.94 -2.006 6.94 C -1.258 7.408 -1.028 8.392 -1.492 9.142 C -1.492 9.142 -5.065 14.92 -5.065 14.92 C -8.528 20.52 -15.514 22.246 -21.232 18.914 C -21.232 18.914 -37.874 9.218 -37.874 9.218 C -38.7 8.737 -39.76 9.08 -40.147 9.954 C -40.147 9.954 -41.891 13.895 -41.891 13.895 C -42.216 14.63 -41.947 15.491 -41.262 15.911 C -41.262 15.911 -6.635 37.122 -6.635 37.122 C -5.935 37.551 -5.671 38.497 -6.048 39.226 C -6.048 39.226 -18.428 63.139 -18.428 63.139 C -18.616 63.503 -18.658 63.924 -18.545 64.318 C -18.545 64.318 -8.892 97.982 -8.892 97.982 C -5.365 110.283 -11.476 122.974 -22.739 126.736 C -22.739 126.736 -27.245 128.241 -27.245 128.241 C -27.691 128.39 -28.181 128.335 -28.583 128.092 C -28.583 128.092 -34.918 124.264 -34.918 124.264 C -38.207 122.277 -40.671 119.009 -41.769 115.18 C -41.769 115.18 -47.462 95.327 -47.462 95.327 C -47.566 94.964 -47.794 94.65 -48.108 94.439 C -48.108 94.439 -58.392 87.527 -58.392 87.527 C -58.702 87.318 -58.93 87.008 -59.036 86.649 C -59.036 86.649 -65.697 64.011 -65.697 64.011 C -65.942 63.18 -66.803 62.694 -67.641 62.913 C -67.641 62.913 -79.779 66.088 -79.779 66.088 C -94.158 69.849 -109.146 60.366 -113.281 44.891 C -113.281 44.891 -115.49 36.626 -115.49 36.626 C -115.573 36.314 -115.56 35.985 -115.453 35.681 C -115.453 35.681 -111.171 23.486 -111.171 23.486 C -108.495 15.864 -102.598 10.139 -95.21 7.988 C -95.21 7.988 -83.235 4.501 -83.235 4.501 C -82.751 4.36 -82.229 4.455 -81.825 4.758 C -81.825 4.758 -73.66 10.88 -73.66 10.88 C -73.258 11.181 -72.739 11.276 -72.256 11.138 C -72.256 11.138 -50.079 4.779 -50.079 4.779 C -49.64 4.653 -49.275 4.346 -49.077 3.934 C -49.077 3.934 -44.139 -6.31 -44.139 -6.31 C -43.812 -6.989 -44.001 -7.803 -44.594 -8.268 C -44.594 -8.268 -58.235 -18.96 -58.235 -18.96 C -58.64 -19.277 -59.172 -19.382 -59.666 -19.24 C -59.666 -19.24 -68.118 -16.816 -68.118 -16.816 C -68.655 -16.662 -69.074 -16.24 -69.222 -15.701 C -69.222 -15.701 -71.014 -9.194 -71.014 -9.194 C -71.162 -8.655 -71.581 -8.232 -72.118 -8.078 C -72.118 -8.078 -83.588 -4.789 -83.588 -4.789 C -84.118 -4.637 -84.689 -4.768 -85.1 -5.136 C -85.1 -5.136 -93.753 -12.88 -93.753 -12.88 C -94.164 -13.248 -94.734 -13.379 -95.264 -13.227 C -95.264 -13.227 -100.933 -11.602 -100.933 -11.602 C -101.362 -11.479 -101.719 -11.183 -101.921 -10.785 C -101.921 -10.785 -108.781 2.764 -108.781 2.764 Z" transform="matrix(1, 0, 0, 1, -591, -16) matrix(1, 0, 0, 1, 431.675, 226.838)"/></g><g opacity="1"><path fill="#FFF" fill-opacity="1" d="M 2.149 -9.635 C 1.905 -10.486 1.016 -10.978 0.165 -10.734 C 0.165 -10.734 0.08 -10.71 0.08 -10.71 C -4.034 -9.53 -6.34 -4.978 -5.068 -0.544 C -5.068 -0.544 -2.149 9.635 -2.149 9.635 C -1.905 10.486 -1.016 10.978 -0.165 10.734 C -0.165 10.734 -0.08 10.71 -0.08 10.71 C 4.034 9.53 6.34 4.978 5.068 0.544 C 5.068 0.544 2.149 -9.635 2.149 -9.635 Z" transform="matrix(1, 0, 0, 1, -591, -16) matrix(1, 0, 0, 1, 431.132, 310.852)"/></g></g></g><g style="display:block" mask="url(&quot;#__lottie_element_293&quot;)"><g opacity=".2"><g opacity="1"><path fill="#FFF" fill-opacity="1" d="M -89.002 -56.666 C -89.713 -55.447 -91.539 -55.675 -91.928 -57.032 C -91.928 -57.032 -94.519 -66.069 -94.519 -66.069 C -96.404 -72.644 -92.987 -79.393 -86.887 -81.142 C -86.887 -81.142 -9.836 -103.236 -9.836 -103.236 C -4.902 -104.651 -0.159 -99.8 -1.272 -94.478 C -1.272 -94.478 -3.085 -85.809 -3.085 -85.809 C -3.221 -85.16 -2.943 -84.494 -2.386 -84.134 C -2.386 -84.134 6.997 -78.07 6.997 -78.07 C 7.386 -77.819 7.864 -77.748 8.309 -77.876 C 8.309 -77.876 19.939 -81.211 19.939 -81.211 C 20.79 -81.455 21.283 -82.343 21.039 -83.194 C 21.039 -83.194 17.987 -93.836 17.987 -93.836 C 17.354 -96.042 19.39 -97.934 21.371 -96.982 C 21.371 -96.982 30.683 -92.504 30.683 -92.504 C 31.037 -92.334 31.442 -92.3 31.82 -92.408 C 31.82 -92.408 37.817 -94.128 37.817 -94.128 C 43.199 -95.671 47.949 -89.508 45.431 -84.249 C 45.431 -84.249 24.988 -41.558 24.988 -41.558 C 22.765 -36.917 18.901 -33.45 14.211 -31.891 C 14.211 -31.891 1.155 -27.55 1.155 -27.55 C 0.339 -27.279 -0.118 -26.412 0.119 -25.586 C 0.119 -25.586 3.117 -15.131 3.117 -15.131 C 3.361 -14.28 4.25 -13.788 5.101 -14.032 C 5.101 -14.032 7.634 -14.758 7.634 -14.758 C 13.525 -16.447 19.918 -15.272 25.128 -11.541 C 25.128 -11.541 35.411 -4.178 35.411 -4.178 C 35.809 -3.893 36.315 -3.806 36.786 -3.941 C 36.786 -3.941 49.175 -7.493 49.175 -7.493 C 52.515 -8.451 56.12 -8.036 59.289 -6.328 C 59.289 -6.328 74.836 2.053 74.836 2.053 C 75.205 2.252 75.635 2.298 76.038 2.183 C 76.038 2.183 79.178 1.282 79.178 1.282 C 83.907 -0.074 88.925 2.959 90.387 8.056 C 90.387 8.056 94.976 24.058 94.976 24.058 C 95.089 24.451 95.047 24.871 94.86 25.234 C 94.86 25.234 69.475 74.518 69.475 74.518 C 69.296 74.866 69.25 75.268 69.347 75.648 C 69.347 75.648 75.931 101.484 75.931 101.484 C 76.231 102.663 75.161 103.733 73.982 103.433 C 73.982 103.433 68.742 102.1 68.742 102.1 C 61.756 100.322 56.094 94.646 53.991 87.311 C 53.991 87.311 42.933 48.747 42.933 48.747 C 42.782 48.22 42.373 47.807 41.848 47.651 C 41.848 47.651 31.507 44.585 31.507 44.585 C 31.361 44.542 31.221 44.48 31.092 44.4 C 26.926 41.813 23.807 37.63 22.405 32.742 C 22.405 32.742 19.116 21.274 19.116 21.274 C 17.563 15.859 18.098 10.093 20.597 5.273 C 20.597 5.273 22.243 2.099 22.243 2.099 C 22.615 1.381 22.394 0.497 21.727 0.039 C 21.727 0.039 12.44 -6.341 12.44 -6.341 C 12.045 -6.612 11.55 -6.692 11.09 -6.56 C 11.09 -6.56 0.147 -3.423 0.147 -3.423 C -0.275 -3.302 -0.727 -3.359 -1.106 -3.581 C -1.106 -3.581 -38.299 -25.403 -38.299 -25.403 C -41.94 -27.54 -44.741 -31.036 -46.138 -35.188 C -46.138 -35.188 -53.789 -57.935 -53.789 -57.935 C -53.933 -58.363 -54.25 -58.71 -54.663 -58.892 C -54.663 -58.892 -71.747 -66.409 -71.747 -66.409 C -77.087 -68.759 -83.09 -66.794 -86.046 -61.73 C -86.046 -61.73 -89.002 -56.666 -89.002 -56.666 Z" transform="matrix(1, 0, 0, 1, -591, -16) matrix(1, 0, 0, 1, 196.75, 297.989)"/></g></g></g><g style="display:block" mask="url(&quot;#__lottie_element_277&quot;)"><g opacity=".2"><g opacity="1"><path fill="#FFF" fill-opacity="1" d="M -89.002 -56.666 C -89.713 -55.447 -91.539 -55.675 -91.928 -57.032 C -91.928 -57.032 -94.519 -66.069 -94.519 -66.069 C -96.404 -72.644 -92.987 -79.393 -86.887 -81.142 C -86.887 -81.142 -9.836 -103.236 -9.836 -103.236 C -4.902 -104.651 -0.159 -99.8 -1.272 -94.478 C -1.272 -94.478 -3.085 -85.809 -3.085 -85.809 C -3.221 -85.16 -2.943 -84.494 -2.386 -84.134 C -2.386 -84.134 6.997 -78.07 6.997 -78.07 C 7.386 -77.819 7.864 -77.748 8.309 -77.876 C 8.309 -77.876 19.939 -81.211 19.939 -81.211 C 20.79 -81.455 21.283 -82.343 21.039 -83.194 C 21.039 -83.194 17.987 -93.836 17.987 -93.836 C 17.354 -96.042 19.39 -97.934 21.371 -96.982 C 21.371 -96.982 30.683 -92.504 30.683 -92.504 C 31.037 -92.334 31.442 -92.3 31.82 -92.408 C 31.82 -92.408 37.817 -94.128 37.817 -94.128 C 43.199 -95.671 47.949 -89.508 45.431 -84.249 C 45.431 -84.249 24.988 -41.558 24.988 -41.558 C 22.765 -36.917 18.901 -33.45 14.211 -31.891 C 14.211 -31.891 1.155 -27.55 1.155 -27.55 C 0.339 -27.279 -0.118 -26.412 0.119 -25.586 C 0.119 -25.586 3.117 -15.131 3.117 -15.131 C 3.361 -14.28 4.25 -13.788 5.101 -14.032 C 5.101 -14.032 7.634 -14.758 7.634 -14.758 C 13.525 -16.447 19.918 -15.272 25.128 -11.541 C 25.128 -11.541 35.411 -4.178 35.411 -4.178 C 35.809 -3.893 36.315 -3.806 36.786 -3.941 C 36.786 -3.941 49.175 -7.493 49.175 -7.493 C 52.515 -8.451 56.12 -8.036 59.289 -6.328 C 59.289 -6.328 74.836 2.053 74.836 2.053 C 75.205 2.252 75.635 2.298 76.038 2.183 C 76.038 2.183 79.178 1.282 79.178 1.282 C 83.907 -0.074 88.925 2.959 90.387 8.056 C 90.387 8.056 94.976 24.058 94.976 24.058 C 95.089 24.451 95.047 24.871 94.86 25.234 C 94.86 25.234 69.475 74.518 69.475 74.518 C 69.296 74.866 69.25 75.268 69.347 75.648 C 69.347 75.648 75.931 101.484 75.931 101.484 C 76.231 102.663 75.161 103.733 73.982 103.433 C 73.982 103.433 68.742 102.1 68.742 102.1 C 61.756 100.322 56.094 94.646 53.991 87.311 C 53.991 87.311 42.933 48.747 42.933 48.747 C 42.782 48.22 42.373 47.807 41.848 47.651 C 41.848 47.651 31.507 44.585 31.507 44.585 C 31.361 44.542 31.221 44.48 31.092 44.4 C 26.926 41.813 23.807 37.63 22.405 32.742 C 22.405 32.742 19.116 21.274 19.116 21.274 C 17.563 15.859 18.098 10.093 20.597 5.273 C 20.597 5.273 22.243 2.099 22.243 2.099 C 22.615 1.381 22.394 0.497 21.727 0.039 C 21.727 0.039 12.44 -6.341 12.44 -6.341 C 12.045 -6.612 11.55 -6.692 11.09 -6.56 C 11.09 -6.56 0.147 -3.423 0.147 -3.423 C -0.275 -3.302 -0.727 -3.359 -1.106 -3.581 C -1.106 -3.581 -38.299 -25.403 -38.299 -25.403 C -41.94 -27.54 -44.741 -31.036 -46.138 -35.188 C -46.138 -35.188 -53.789 -57.935 -53.789 -57.935 C -53.933 -58.363 -54.25 -58.71 -54.663 -58.892 C -54.663 -58.892 -71.747 -66.409 -71.747 -66.409 C -77.087 -68.759 -83.09 -66.794 -86.046 -61.73 C -86.046 -61.73 -89.002 -56.666 -89.002 -56.666 Z" transform="matrix(1, 0, 0, 1, -591, -16) matrix(1, 0, 0, 1, 196.75, 297.989)"/></g><g opacity="1"><path fill="#FFF" fill-opacity="1" d="M -108.781 2.764 C -109.303 3.795 -110.712 3.951 -111.448 3.06 C -111.448 3.06 -114.088 -0.137 -114.088 -0.137 C -116.912 -3.558 -117.76 -8.302 -116.281 -12.418 C -116.281 -12.418 -116 -13.2 -116 -13.2 C -114.316 -17.888 -110.661 -21.396 -106.098 -22.705 C -106.098 -22.705 -104.597 -23.136 -104.597 -23.136 C -104.597 -23.136 -104.86 -24.053 -104.86 -24.053 C -107.313 -32.609 -103.052 -41.434 -95.212 -44.033 C -95.212 -44.033 -86.914 -46.784 -86.914 -46.784 C -86.914 -46.784 -86.914 -46.784 -86.914 -46.784 C -88.494 -52.292 -87.77 -58.166 -84.932 -62.874 C -84.932 -62.874 -84.017 -64.392 -84.017 -64.392 C -83.491 -65.264 -83.901 -66.399 -84.863 -66.734 C -84.863 -66.734 -87.061 -67.498 -87.061 -67.498 C -87.804 -67.756 -88.624 -67.438 -88.998 -66.746 C -88.998 -66.746 -97.553 -50.924 -97.553 -50.924 C -97.553 -50.924 -97.553 -50.924 -97.553 -50.924 C -102.717 -55.695 -103.835 -63.704 -100.145 -69.508 C -100.145 -69.508 -97.271 -74.029 -97.271 -74.029 C -91.624 -82.911 -80.278 -85.287 -71.393 -79.447 C -71.393 -79.447 -64.802 -75.115 -64.802 -75.115 C -64.39 -74.844 -63.876 -74.777 -63.409 -74.935 C -63.409 -74.935 -33.246 -85.109 -33.246 -85.109 C -32.803 -85.259 -32.447 -85.595 -32.272 -86.029 C -32.272 -86.029 -30.752 -89.795 -30.752 -89.795 C -28.242 -96.016 -23.308 -100.689 -17.197 -102.632 C -17.197 -102.632 -8.303 -105.46 -8.303 -105.46 C -7.864 -105.6 -7.506 -105.921 -7.321 -106.343 C -7.321 -106.343 -4.262 -113.305 -4.262 -113.305 C -2.112 -118.197 1.929 -121.799 6.849 -123.21 C 6.849 -123.21 20.096 -127.008 20.096 -127.008 C 26.59 -128.87 33.629 -127.721 39.507 -123.837 C 39.507 -123.837 45.903 -119.611 45.903 -119.611 C 46.294 -119.353 46.779 -119.278 47.229 -119.407 C 47.229 -119.407 73.922 -127.061 73.922 -127.061 C 77.548 -128.101 81.466 -127.593 84.861 -125.643 C 84.861 -125.643 89.19 -123.157 89.19 -123.157 C 89.566 -122.941 90.013 -122.886 90.43 -123.006 C 90.43 -123.006 108.077 -128.066 108.077 -128.066 C 113.681 -129.673 118.741 -123.463 116.42 -117.825 C 116.42 -117.825 111.797 -106.593 111.797 -106.593 C 111.611 -106.14 111.227 -105.797 110.756 -105.662 C 110.756 -105.662 95.963 -101.42 95.963 -101.42 C 95.094 -101.171 94.603 -100.254 94.877 -99.393 C 94.877 -99.393 97.813 -90.161 97.813 -90.161 C 99.23 -85.704 98.971 -80.903 97.09 -76.787 C 97.09 -76.787 90.88 -63.197 90.88 -63.197 C 88.937 -58.944 85.424 -55.784 81.146 -54.44 C 81.146 -54.44 74.628 -52.393 74.628 -52.393 C 73.831 -52.143 73.36 -51.322 73.545 -50.508 C 73.545 -50.508 73.761 -49.555 73.761 -49.555 C 75.205 -43.189 74.114 -36.576 70.751 -31.306 C 70.751 -31.306 67.207 -25.755 67.207 -25.755 C 66.96 -25.367 66.89 -24.892 67.017 -24.45 C 67.017 -24.45 69.379 -16.215 69.379 -16.215 C 70.914 -10.863 65.722 -6.432 61.092 -9.142 C 61.092 -9.142 34.94 -24.448 34.94 -24.448 C 34.117 -24.93 33.058 -24.591 32.668 -23.721 C 32.668 -23.721 20.506 3.382 20.506 3.382 C 20.096 4.297 18.956 4.614 18.131 4.044 C 18.131 4.044 4.046 -5.7 4.046 -5.7 C 1.907 -7.18 -0.801 -7.209 -2.859 -5.775 C -2.859 -5.775 -2.859 -5.775 -2.859 -5.775 C -4.687 -4.501 -7.048 -4.371 -9.076 -5.434 C -9.076 -5.434 -17.764 -9.987 -17.764 -9.987 C -18.519 -10.383 -19.452 -10.118 -19.887 -9.385 C -19.887 -9.385 -21.311 -6.985 -21.311 -6.985 C -21.755 -6.236 -21.52 -5.27 -20.782 -4.808 C -20.782 -4.808 -2.006 6.94 -2.006 6.94 C -1.258 7.408 -1.028 8.392 -1.492 9.142 C -1.492 9.142 -5.065 14.92 -5.065 14.92 C -8.528 20.52 -15.514 22.246 -21.232 18.914 C -21.232 18.914 -37.874 9.218 -37.874 9.218 C -38.7 8.737 -39.76 9.08 -40.147 9.954 C -40.147 9.954 -41.891 13.895 -41.891 13.895 C -42.216 14.63 -41.947 15.491 -41.262 15.911 C -41.262 15.911 -6.635 37.122 -6.635 37.122 C -5.935 37.551 -5.671 38.497 -6.048 39.226 C -6.048 39.226 -18.428 63.139 -18.428 63.139 C -18.616 63.503 -18.658 63.924 -18.545 64.318 C -18.545 64.318 -8.892 97.982 -8.892 97.982 C -5.365 110.283 -11.476 122.974 -22.739 126.736 C -22.739 126.736 -27.245 128.241 -27.245 128.241 C -27.691 128.39 -28.181 128.335 -28.583 128.092 C -28.583 128.092 -34.918 124.264 -34.918 124.264 C -38.207 122.277 -40.671 119.009 -41.769 115.18 C -41.769 115.18 -47.462 95.327 -47.462 95.327 C -47.566 94.964 -47.794 94.65 -48.108 94.439 C -48.108 94.439 -58.392 87.527 -58.392 87.527 C -58.702 87.318 -58.93 87.008 -59.036 86.649 C -59.036 86.649 -65.697 64.011 -65.697 64.011 C -65.942 63.18 -66.803 62.694 -67.641 62.913 C -67.641 62.913 -79.779 66.088 -79.779 66.088 C -94.158 69.849 -109.146 60.366 -113.281 44.891 C -113.281 44.891 -115.49 36.626 -115.49 36.626 C -115.573 36.314 -115.56 35.985 -115.453 35.681 C -115.453 35.681 -111.171 23.486 -111.171 23.486 C -108.495 15.864 -102.598 10.139 -95.21 7.988 C -95.21 7.988 -83.235 4.501 -83.235 4.501 C -82.751 4.36 -82.229 4.455 -81.825 4.758 C -81.825 4.758 -73.66 10.88 -73.66 10.88 C -73.258 11.181 -72.739 11.276 -72.256 11.138 C -72.256 11.138 -50.079 4.779 -50.079 4.779 C -49.64 4.653 -49.275 4.346 -49.077 3.934 C -49.077 3.934 -44.139 -6.31 -44.139 -6.31 C -43.812 -6.989 -44.001 -7.803 -44.594 -8.268 C -44.594 -8.268 -58.235 -18.96 -58.235 -18.96 C -58.64 -19.277 -59.172 -19.382 -59.666 -19.24 C -59.666 -19.24 -68.118 -16.816 -68.118 -16.816 C -68.655 -16.662 -69.074 -16.24 -69.222 -15.701 C -69.222 -15.701 -71.014 -9.194 -71.014 -9.194 C -71.162 -8.655 -71.581 -8.232 -72.118 -8.078 C -72.118 -8.078 -83.588 -4.789 -83.588 -4.789 C -84.118 -4.637 -84.689 -4.768 -85.1 -5.136 C -85.1 -5.136 -93.753 -12.88 -93.753 -12.88 C -94.164 -13.248 -94.734 -13.379 -95.264 -13.227 C -95.264 -13.227 -100.933 -11.602 -100.933 -11.602 C -101.362 -11.479 -101.719 -11.183 -101.921 -10.785 C -101.921 -10.785 -108.781 2.764 -108.781 2.764 Z" transform="matrix(1, 0, 0, 1, -591, -16) matrix(1, 0, 0, 1, 431.675, 226.838)"/></g><g opacity="1"><path fill="#FFF" fill-opacity="1" d="M 2.149 -9.635 C 1.905 -10.486 1.016 -10.978 0.165 -10.734 C 0.165 -10.734 0.08 -10.71 0.08 -10.71 C -4.034 -9.53 -6.34 -4.978 -5.068 -0.544 C -5.068 -0.544 -2.149 9.635 -2.149 9.635 C -1.905 10.486 -1.016 10.978 -0.165 10.734 C -0.165 10.734 -0.08 10.71 -0.08 10.71 C 4.034 9.53 6.34 4.978 5.068 0.544 C 5.068 0.544 2.149 -9.635 2.149 -9.635 Z" transform="matrix(1, 0, 0, 1, -591, -16) matrix(1, 0, 0, 1, 431.132, 310.852)"/></g><g opacity="1"><path fill="#FFF" fill-opacity="1" d="M -12.488 -2.681 C -12.488 -2.681 2.873 5.834 2.873 5.834 C 5.466 7.271 8.492 7.365 11.058 6.087 C 11.058 6.087 11.97 5.633 11.97 5.633 C 13.095 5.073 13.167 3.495 12.098 2.834 C 12.098 2.834 -1.558 -5.606 -1.558 -5.606 C -5.216 -7.867 -9.745 -7.302 -12.622 -4.226 C -12.622 -4.226 -12.858 -3.973 -12.858 -3.973" transform="matrix(1, 0, 0, 1, -591, -16) matrix(1, 0, 0, 1, 506.505, 241.666)"/></g><g opacity="1"><path fill="#FFF" fill-opacity="1" d="M 0.518 9.24 C -0.333 9.484 -1.221 8.992 -1.465 8.141 C -1.465 8.141 -4.305 -1.762 -4.305 -1.762 C -5.24 -5.024 -3.545 -8.372 -0.518 -9.24 C -0.518 -9.24 -0.518 -9.24 -0.518 -9.24 C 0.333 -9.484 1.221 -8.992 1.465 -8.141 C 1.465 -8.141 4.305 1.762 4.305 1.762 C 5.24 5.024 3.545 8.372 0.518 9.24 C 0.518 9.24 0.518 9.24 0.518 9.24 Z" transform="matrix(1, 0, 0, 1, -591, -16) matrix(1, 0, 0, 1, 519.029, 221.825)"/></g><g opacity="1"><path fill="#FFF" fill-opacity="1" d="M -6.337 7.309 C -7.188 7.553 -8.076 7.061 -8.32 6.21 C -8.32 6.21 -8.513 5.537 -8.513 5.537 C -9.77 1.154 -7.492 -3.344 -3.426 -4.51 C -3.426 -4.51 6.337 -7.309 6.337 -7.309 C 7.188 -7.553 8.076 -7.061 8.32 -6.21 C 8.32 -6.21 8.513 -5.537 8.513 -5.537 C 9.77 -1.154 7.492 3.344 3.426 4.51 C 3.426 4.51 -6.337 7.309 -6.337 7.309 Z" transform="matrix(1, 0, 0, 1, -591, -16) matrix(1, 0, 0, 1, 541.437, 237.275)"/></g><g opacity="1"><path fill="#FFF" fill-opacity="1" d="M -26.55 9.021 C -26.55 9.021 -29.345 0.876 -29.345 0.876 C -29.491 0.449 -29.452 -0.02 -29.235 -0.416 C -29.235 -0.416 -23.277 -11.275 -23.277 -11.275 C -21.224 -15.017 -17.88 -17.73 -13.923 -18.865 C -13.923 -18.865 -4.639 -21.528 -4.639 -21.528 C 0.202 -22.916 5.463 -21.801 9.6 -18.512 C 9.6 -18.512 21.841 -8.781 21.841 -8.781 C 22.102 -8.573 22.293 -8.288 22.385 -7.967 C 22.385 -7.967 29.37 16.393 29.37 16.393 C 29.614 17.244 29.121 18.132 28.27 18.376 C 28.27 18.376 15.458 22.05 15.458 22.05 C 15.004 22.18 14.514 22.103 14.122 21.84 C 14.122 21.84 3.934 15.006 3.934 15.006 C 3.515 14.725 2.987 14.657 2.51 14.824 C 2.51 14.824 -8.609 18.721 -8.609 18.721 C -15.884 21.27 -23.95 16.909 -26.55 9.021 Z" transform="matrix(1, 0, 0, 1, -591, -16) matrix(1, 0, 0, 1, 560.371, 271.382)"/></g><g opacity="1"><path fill="#FFF" fill-opacity="1" d="M -6.495 -9.724 C -6.495 -9.724 -2.472 4.305 -2.472 4.305 C -1.303 8.383 2.712 10.809 6.495 9.724 C 6.495 9.724 6.495 9.724 6.495 9.724 C 6.495 9.724 2.472 -4.305 2.472 -4.305 C 1.303 -8.383 -2.712 -10.809 -6.495 -9.724 C -6.495 -9.724 -6.495 -9.724 -6.495 -9.724 Z" transform="matrix(1, 0, 0, 1, -591, -16) matrix(1, 0, 0, 1, 598.933, 277.818)"/></g></g></g></g><g style="display:block" clip-path="url(#__lottie_element_362)" opacity="1" transform="matrix(1.00001, 0, 0, 1.00001, -0.00238037, -0.00228882)"><g filter="url(#__lottie_element_382)" style="display:block" opacity=".05" transform="matrix(0.913966, 0.350839, -0.358368, 0.93358, 272.318, 255.03)"><g opacity="1"><path fill="#000" fill-opacity="1" d="M 118.394 -76.25 C 118.394 -76.25 8.25 -55.75 3.25 -54.75 C -1.75 -53.75 0.5 -51.25 0.5 -51.25 C 0.5 -51.25 29.5 -19.5 29.5 -19.5 C 29.5 -19.5 118.394 -76.25 118.394 -76.25 Z" transform="matrix(1, 0, 0, 1, 0, 0)"/></g></g><g filter="url(#__lottie_element_379)" style="display:block" opacity=".05" transform="matrix(0.93358, 0.358368, -0.358368, 0.93358, 271.388, 254.405)"><g opacity="1"><path fill="#000" fill-opacity="1" d="M 117 -76.125 C 117 -76.125 33.5 -14.75 33.5 -14.75 C 33.5 -14.75 70.75 21.75 70.75 21.75 C 70.75 21.75 73.375 25.5 76.125 20.5 C 78.875 15.5 117 -76.125 117 -76.125 Z" transform="matrix(1, 0, 0, 1, 0, 0)"/></g></g><g style="display:block" opacity="1"><g opacity="1"><path fill="#D0D0D0" fill-opacity="1" d="M 117 -76 C 117 -76 29.5 -20.875 29.5 -20.875 C 29.5 -20.875 28 4 28 4 C 28 4 49.477 -15.305 49.477 -15.305 C 49.477 -15.305 117 -76 117 -76 Z" transform="matrix(0.93358, 0.358368, -0.358368, 0.93358, 271.387, 254.406) matrix(1, 0, 0, 1, 0, 0)"/></g></g><g style="display:block" opacity="1"><g opacity="1"><path fill="#BEBEBE" fill-opacity="1" d="M 56.5 -25.25 C 56.5 -25.25 33.75 -14.875 33.75 -14.875 C 33.75 -14.875 28 4 28 4 C 28 4 56.625 -20.625 56.625 -20.625 C 56.625 -20.625 56.5 -25.25 56.5 -25.25 Z" transform="matrix(0.93358, 0.358368, -0.358368, 0.93358, 271.387, 254.406) matrix(1, 0, 0, 1, 0, 0)"/></g></g><g style="display:block" opacity="1"><g opacity="1"><path fill="#FFF" fill-opacity="1" d="M 118.394 -76.25 C 118.394 -76.25 8.25 -55.75 3.25 -54.75 C -1.75 -53.75 0.5 -51.25 0.5 -51.25 C 0.5 -51.25 29.5 -19.5 29.5 -19.5 C 29.5 -19.5 118.394 -76.25 118.394 -76.25 Z" transform="matrix(0.913966, 0.350839, -0.358368, 0.93358, 272.318, 255.03) matrix(1, 0, 0, 1, 0, 0)"/></g></g><g style="display:block" opacity="1"><g opacity="1"><path fill="#FFF" fill-opacity="1" d="M 117 -76.125 C 117 -76.125 33.5 -14.75 33.5 -14.75 C 33.5 -14.75 70.75 21.75 70.75 21.75 C 70.75 21.75 73.375 25.5 76.125 20.5 C 78.875 15.5 117 -76.125 117 -76.125 Z" transform="matrix(0.93358, 0.358368, -0.358368, 0.93358, 271.388, 254.405) matrix(1, 0, 0, 1, 0, 0)"/></g></g></g></g></g></svg>